<?xml version="1.0" encoding="UTF-8" standalone="no"?>
<!DOCTYPE svg PUBLIC "-//W3C//DTD SVG 1.1//EN" "http://www.w3.org/Graphics/SVG/1.1/DTD/svg11.dtd">
<!-- Generated by Microsoft Visio, SVG Export BankSwitchedMemory.svg Page-1 -->
<svg xmlns="http://www.w3.org/2000/svg" xmlns:xlink="http://www.w3.org/1999/xlink" xmlns:ev="http://www.w3.org/2001/xml-events"
		width="6.51042in" height="5.73361in" viewBox="0 0 468.75 412.82" xml:space="preserve" color-interpolation-filters="sRGB"
		class="st22">
	<style type="text/css">
	<![CDATA[
		.st1 {fill:#c0c0c0;stroke:#000000;stroke-linecap:round;stroke-linejoin:round;stroke-width:0.24}
		.st2 {fill:#ffffff;stroke:#000000;stroke-linecap:round;stroke-linejoin:round;stroke-width:0.24}
		.st3 {stroke:#000000;stroke-linecap:round;stroke-linejoin:round;stroke-width:0.24}
		.st4 {fill:#ffffff;stroke:none;stroke-linecap:butt;stroke-width:7.2}
		.st5 {fill:#000000;font-family:Calibri;font-size:0.75em}
		.st6 {fill:#ffffff;stroke:none;stroke-linecap:butt}
		.st7 {fill:#000000;font-family:Calibri;font-size:1.00001em}
		.st8 {fill:none;stroke:none;stroke-linecap:round;stroke-linejoin:round;stroke-width:0.75}
		.st9 {fill:#000000;font-family:Calibri;font-size:0.833336em}
		.st10 {font-size:1em}
		.st11 {stroke:#000000;stroke-dasharray:7,5;stroke-linecap:round;stroke-linejoin:round;stroke-width:1}
		.st12 {fill:#ffffff;stroke:#000000;stroke-linecap:round;stroke-linejoin:round;stroke-width:1.5}
		.st13 {stroke:#000000;stroke-linecap:round;stroke-linejoin:round;stroke-width:1.5}
		.st14 {marker-end:url(#mrkr4-136);stroke:#000000;stroke-linecap:round;stroke-linejoin:round;stroke-width:1.5}
		.st15 {fill:#000000;fill-opacity:1;stroke:#000000;stroke-opacity:1;stroke-width:0.37313432835821}
		.st16 {fill:#000000;font-family:Calibri;font-size:0.666664em}
		.st17 {stroke:#000000;stroke-dasharray:1.5,3;stroke-linecap:round;stroke-linejoin:round;stroke-width:1.5}
		.st18 {marker-end:url(#mrkr4-165);marker-start:url(#mrkr10-163);stroke:#000000;stroke-linecap:round;stroke-linejoin:round;stroke-width:0.24}
		.st19 {fill:#000000;fill-opacity:1;stroke:#000000;stroke-opacity:1;stroke-width:0.08695652173913}
		.st20 {marker-end:url(#mrkr4-136);marker-start:url(#mrkr10-193);stroke:#000000;stroke-linecap:round;stroke-linejoin:round;stroke-width:1.5}
		.st21 {fill:#ffffff;stroke:#000000;stroke-linecap:round;stroke-linejoin:round;stroke-width:1}
		.st22 {fill:none;fill-rule:evenodd;font-size:12px;overflow:visible;stroke-linecap:square;stroke-miterlimit:3}
	]]>
	</style>

	<defs id="Markers">
		<g id="lend4">
			<path d="M 2 1 L 0 0 L 2 -1 L 2 1 " style="stroke:none"/>
		</g>
		<marker id="mrkr4-136" class="st15" refX="-5.36" orient="auto" markerUnits="strokeWidth" overflow="visible">
			<use xlink:href="#lend4" transform="scale(-2.68,-2.68) "/>
		</marker>
		<g id="lend10">
			<path
					d="M 0 0.75 C -0.414214 0.75 -0.75 0.414214 -0.75 0 -0.75 -0.414214 -0.414214 -0.75 0 -0.75 0.414214 -0.75 0.75 -0.414214 0.75 0 0.75 0.414214 0.414214 0.75 0 0.75 Z "
					style="stroke:none"/>
		</g>
		<marker id="mrkr10-163" class="st19" refX="7.125" orient="auto" markerUnits="strokeWidth" overflow="visible">
			<use xlink:href="#lend10" transform="scale(11.5) "/>
		</marker>
		<marker id="mrkr4-165" class="st19" refX="-23" orient="auto" markerUnits="strokeWidth" overflow="visible">
			<use xlink:href="#lend4" transform="scale(-11.5,-11.5) "/>
		</marker>
		<marker id="mrkr10-193" class="st15" refX="1.77" orient="auto" markerUnits="strokeWidth" overflow="visible">
			<use xlink:href="#lend10" transform="scale(2.68) "/>
		</marker>
	</defs>
	<g>
		<title>Page-1</title>
		<g id="group13-1" transform="translate(216.75,-109.92)">
			<title>Data block.13</title>
			<g id="shape14-2" transform="translate(157.745,0)">
				<title>Sheet.14</title>
				<path d="M0 412.82 L11.41 401.41 L11.41 228.61 L0 240.02 L0 412.82 Z" class="st1"/>
			</g>
			<g id="shape15-4" transform="translate(0,-172.8)">
				<title>Sheet.15</title>
				<path d="M0 412.82 L157.75 412.82 L169.15 401.41 L11.41 401.41 L0 412.82 Z" class="st1"/>
			</g>
			<g id="shape16-6">
				<title>Sheet.16</title>
				<rect x="0" y="240.02" width="157.745" height="172.8" class="st2"/>
			</g>
		</g>
		<g id="group9-8" transform="translate(216.75,-282.72)">
			<title>Data block.9</title>
			<g id="shape10-9" transform="translate(157.745,0)">
				<title>Sheet.10</title>
				<path d="M0 412.82 L11.41 401.41 L11.41 343.81 L0 355.22 L0 412.82 Z" class="st1"/>
			</g>
			<g id="shape11-11" transform="translate(0,-57.6)">
				<title>Sheet.11</title>
				<path d="M0 412.82 L157.75 412.82 L169.15 401.41 L11.41 401.41 L0 412.82 Z" class="st1"/>
			</g>
			<g id="shape12-13">
				<title>Sheet.12</title>
				<rect x="0" y="355.22" width="157.745" height="57.6" class="st2"/>
			</g>
		</g>
		<g id="group5-15" transform="translate(216.75,-340.32)">
			<title>Data block</title>
			<g id="shape6-16" transform="translate(157.745,0)">
				<title>Sheet.6</title>
				<path d="M0 412.82 L11.41 401.41 L11.41 379.81 L0 391.22 L0 412.82 Z" class="st1"/>
			</g>
			<g id="shape7-18" transform="translate(0,-21.6)">
				<title>Sheet.7</title>
				<path d="M0 412.82 L157.75 412.82 L169.15 401.41 L11.41 401.41 L0 412.82 Z" class="st1"/>
			</g>
			<g id="shape8-20">
				<title>Sheet.8</title>
				<rect x="0" y="391.22" width="157.745" height="21.6" class="st2"/>
			</g>
		</g>
		<g id="shape2-22" transform="translate(65.55,486.457) rotate(180)">
			<title>Sheet.2</title>
			<desc>$FE00</desc>
			<path d="M0 412.82 L36 412.82" class="st3"/>
			<rect x="-29.1072" y="-418.22" width="22.2144" height="10.7998" transform="rotate(180)" class="st4"/>
			<text x="-29.11" y="-410.12" transform="rotate(180)" class="st5">$FE00</text>		</g>
		<g id="shape3-27" transform="translate(65.55,542.541) rotate(180)">
			<title>Sheet.3</title>
			<desc>$D000</desc>
			<path d="M0 412.82 L36 412.82" class="st3"/>
			<rect x="-29.8916" y="-418.22" width="23.7832" height="10.7998" transform="rotate(180)" class="st6"/>
			<text x="-29.89" y="-410.12" transform="rotate(180)" class="st5">$D000</text>		</g>
		<g id="shape17-32" transform="translate(433.37,106.7) rotate(90)">
			<title>Sheet.17</title>
			<desc>$8000</desc>
			<path d="M0 412.82 L46.25 412.82" class="st3"/>
			<rect x="-38.3323" y="-420.02" width="30.4102" height="14.4001" transform="rotate(180)" class="st6"/>
			<text x="-38.33" y="-409.22" transform="rotate(180)" class="st7">$8000</text>		</g>
		<g id="group18-37" transform="translate(297.405,-282.72)">
			<title>3D stack middle</title>
			<g id="shape19-38" transform="translate(77.0909,0)">
				<title>Sheet.19</title>
				<path d="M0 412.82 L7.2 405.62 L7.2 387.58 L0 394.78 L0 412.82 Z" class="st1"/>
			</g>
			<g id="shape20-40">
				<title>Sheet.20</title>
				<rect x="0" y="394.784" width="77.0909" height="18.0364" class="st2"/>
			</g>
		</g>
		<g id="group21-42" transform="translate(297.405,-297.12)">
			<title>3D stack middle.21</title>
			<g id="shape22-43" transform="translate(77.0909,0)">
				<title>Sheet.22</title>
				<path d="M0 412.82 L7.2 405.62 L7.2 384.02 L0 391.22 L0 412.82 Z" class="st1"/>
			</g>
			<g id="shape23-45">
				<title>Sheet.23</title>
				<rect x="0" y="391.22" width="77.0909" height="21.6" class="st2"/>
			</g>
		</g>
		<g id="group24-47" transform="translate(297.405,-318.72)">
			<title>3D stack middle.24</title>
			<g id="shape25-48" transform="translate(77.0909,0)">
				<title>Sheet.25</title>
				<path d="M0 412.82 L7.2 405.62 L7.2 384.02 L0 391.22 L0 412.82 Z" class="st1"/>
			</g>
			<g id="shape26-50">
				<title>Sheet.26</title>
				<rect x="0" y="391.22" width="77.0909" height="21.6" class="st2"/>
			</g>
		</g>
		<g id="shape27-52" transform="translate(220.314,-340.32)">
			<title>Sheet.27</title>
			<desc>HBIOS Proxy (RST 08)</desc>
			<rect x="0" y="391.22" width="154.182" height="21.6" class="st8"/>
			<text x="34.06" y="405.02" class="st9">HBIOS Proxy (RST 08)</text>		</g>
		<g id="shape28-55" transform="translate(220.314,-109.92)">
			<title>Sheet.28</title>
			<desc>Application Area (TPA)</desc>
			<rect x="0" y="237.402" width="154.836" height="175.418" class="st8"/>
			<text x="22.5" y="328.71" class="st7">Application Area (TPA)</text>		</g>
		<g id="shape29-58" transform="translate(220.314,-282.72)">
			<title>Sheet.29</title>
			<desc>Operating System CP/M or ZSYS</desc>
			<rect x="0" y="355.22" width="77.0909" height="57.6" class="st8"/>
			<text x="2.38" y="375.02" class="st9">Operating System  <tspan x="11.08" dy="2.4em" class="st10">CP/M or ZSYS</tspan></text>		</g>
		<g id="shape30-62" transform="translate(297.405,-318.72)">
			<title>Sheet.30</title>
			<desc>CBIOS</desc>
			<rect x="0" y="391.22" width="77.0909" height="21.6" class="st8"/>
			<text x="26.29" y="405.02" class="st9">CBIOS</text>		</g>
		<g id="shape31-65" transform="translate(297.405,-297.12)">
			<title>Sheet.31</title>
			<desc>BDOS</desc>
			<rect x="0" y="391.22" width="77.0909" height="21.6" class="st8"/>
			<text x="27.14" y="405.02" class="st9">BDOS</text>		</g>
		<g id="shape32-68" transform="translate(297.405,-282.72)">
			<title>Sheet.32</title>
			<desc>CCP</desc>
			<rect x="0" y="398.42" width="77.0909" height="14.4" class="st8"/>
			<text x="30.63" y="408.62" class="st9">CCP</text>		</g>
		<g id="group33-71" transform="translate(72.75,-109.92)">
			<title>Data block.33</title>
			<g id="shape34-72" transform="translate(108,0)">
				<title>Sheet.34</title>
				<path d="M0 412.82 L11.41 401.41 L11.41 286.21 L0 297.62 L0 412.82 Z" class="st1"/>
			</g>
			<g id="shape35-74" transform="translate(0,-115.2)">
				<title>Sheet.35</title>
				<path d="M0 412.82 L108 412.82 L119.41 401.41 L11.41 401.41 L0 412.82 Z" class="st1"/>
			</g>
			<g id="shape36-76">
				<title>Sheet.36</title>
				<rect x="0" y="297.62" width="108" height="115.2" class="st2"/>
			</g>
		</g>
		<g id="shape37-78" transform="translate(22.35,-225.12)">
			<title>Sheet.37</title>
			<path d="M0 412.82 L360 412.82" class="st11"/>
		</g>
		<g id="shape38-81" transform="translate(72.75,-109.92)">
			<title>Sheet.38</title>
			<desc>HBIOS (Hardware Drivers)</desc>
			<rect x="0" y="297.62" width="108" height="115.2" class="st8"/>
			<text x="38.76" y="351.62" class="st7">HBIOS <tspan x="7.61" dy="1.2em" class="st10">(Hardware Drivers)</tspan></text>		</g>
		<g id="shape39-85" transform="translate(22.35,-109.92)">
			<title>Sheet.39</title>
			<path d="M0 412.82 L338.4 412.82" class="st11"/>
		</g>
		<g id="shape40-88" transform="translate(22.35,-361.92)">
			<title>Sheet.40</title>
			<path d="M0 412.82 L360 412.82" class="st11"/>
		</g>
		<g id="shape43-91" transform="translate(-397.67,302.9) rotate(-90)">
			<title>Sheet.43</title>
			<desc>Z80 CPU Address Space</desc>
			<rect x="0" y="398.42" width="252" height="14.4" class="st12"/>
			<text x="69.04" y="409.22" class="st7">Z80 CPU Address Space</text>		</g>
		<g id="shape41-94" transform="translate(-383.27,302.9) rotate(-90)">
			<title>Sheet.41</title>
			<desc>Banked Lower 32K</desc>
			<rect x="0" y="398.42" width="115.2" height="14.4" class="st12"/>
			<text x="12.48" y="409.22" class="st7">Banked Lower 32K</text>		</g>
		<g id="shape42-97" transform="translate(-383.27,187.7) rotate(-90)">
			<title>Sheet.42</title>
			<desc>Fixed Upper 32K</desc>
			<rect x="0" y="398.42" width="136.8" height="14.4" class="st12"/>
			<text x="28.39" y="409.22" class="st7">Fixed Upper 32K</text>		</g>
		<g id="shape1-100" transform="translate(65.55,463.72) rotate(180)">
			<title>Sheet.1</title>
			<desc>$10000</desc>
			<path d="M0 412.82 L36 412.82" class="st3"/>
			<rect x="-31.6846" y="-418.22" width="27.3691" height="10.7998" transform="rotate(180)" class="st6"/>
			<text x="-31.68" y="-410.12" transform="rotate(180)" class="st5">$10000</text>		</g>
		<g id="shape4-105" transform="translate(65.55,715.72) rotate(180)">
			<title>Sheet.4</title>
			<desc>$0000</desc>
			<path d="M0 412.82 L36 412.82" class="st3"/>
			<rect x="-29.4038" y="-418.22" width="22.8076" height="10.7998" transform="rotate(180)" class="st4"/>
			<text x="-29.4" y="-410.12" transform="rotate(180)" class="st5">$0000</text>		</g>
		<g id="shape44-110" transform="translate(798.77,50.9) rotate(90)">
			<title>Bracket</title>
			<path d="M0 412.82 A6.11239 6.11239 0 0 1 5.4 407.42 L64.22 407.42 A6.11239 6.11239 -180 0 0 69.62 402.02 A6.11239 6.11239
						 -180 0 0 75.02 407.42 L131.4 407.42 A6.11239 6.11239 0 0 1 136.8 412.82" class="st13"/>
		</g>
		<g id="shape45-113" transform="translate(0.750002,-52.32)">
			<title>Sheet.45</title>
			<desc>Bank 0</desc>
			<rect x="0" y="398.42" width="36" height="14.4" class="st12"/>
			<text x="5.69" y="408.32" class="st5">Bank 0</text>		</g>
		<g id="shape47-116" transform="translate(252.75,-52.32)">
			<title>Sheet.47</title>
			<desc>App/OS Banks</desc>
			<rect x="0" y="398.42" width="108" height="14.4" class="st12"/>
			<text x="28.09" y="408.32" class="st5">App/OS Banks</text>		</g>
		<g id="shape48-119" transform="translate(360.75,-52.32)">
			<title>Sheet.48</title>
			<desc>Bank N-1</desc>
			<rect x="0" y="398.42" width="36" height="14.4" class="st12"/>
			<text x="1.41" y="408.32" class="st5">Bank N-1</text>		</g>
		<g id="shape49-122" transform="translate(396.75,-52.32)">
			<title>Sheet.49</title>
			<desc>Bank N</desc>
			<rect x="0" y="398.42" width="36" height="14.4" class="st12"/>
			<text x="5.06" y="408.32" class="st5">Bank N</text>		</g>
		<g id="shape50-125" transform="translate(36.75,-52.32)">
			<title>Sheet.50</title>
			<desc>• • •</desc>
			<rect x="0" y="398.42" width="216" height="14.4" class="st12"/>
			<text x="91.49" y="408.62" class="st9">•    •    •</text>		</g>
		<g id="shape51-128" transform="translate(375.15,715.72) rotate(180)">
			<title>Bracket.51</title>
			<path d="M0 412.82 A8.14985 8.14985 0 0 1 7.2 405.62 L36 405.62 A8.14985 8.14985 -180 0 0 43.2 398.42 A8.14985 8.14985
						 -180 0 0 50.4 405.62 L151.2 405.62 A8.14985 8.14985 0 0 1 158.4 412.82" class="st13"/>
		</g>
		<g id="shape55-131" transform="translate(396.75,-66.72)">
			<title>Sheet.55</title>
			<path d="M0 187.31 L9 187.31 A9 9 0 0 1 18 196.31 L18 404.78" class="st14"/>
		</g>
		<g id="shape56-137" transform="translate(0.750002,-37.92)">
			<title>Sheet.56</title>
			<desc>Physical RAM (32K per bank)</desc>
			<rect x="0" y="398.42" width="432" height="14.4" class="st12"/>
			<text x="157.88" y="408.62" class="st9">Physical RAM (32K per bank)</text>		</g>
		<g id="shape57-140" transform="translate(180.75,715.72) rotate(180)">
			<title>Bracket.57</title>
			<desc>`</desc>
			<path d="M0 412.82 A8.14984 8.14984 0 0 1 7.2 405.62 L46.8 405.62 A8.14984 8.14984 -180 0 0 54 398.42 A8.14984 8.14984
						 -180 0 0 61.2 405.62 L100.8 405.62 A8.14984 8.14984 0 0 1 108 412.82" class="st13"/>
			<rect x="393.092" y="-58.7999" width="2.328" height="9.59985" transform="rotate(90)" class="st4"/>
			<text x="393.09" y="-51.6" transform="rotate(90)" class="st16">`</text>		</g>
		<g id="shape58-145" transform="translate(449.57,360.5) rotate(90)">
			<title>Sheet.58</title>
			<path d="M0 412.82 L34.16 412.82" class="st17"/>
		</g>
		<g id="group60-148" transform="translate(36.75,-0.12)">
			<title>3D stack top</title>
			<desc>RAM Disk</desc>
			<g id="shape61-149" transform="translate(208.8,0)">
				<title>Sheet.61</title>
				<path d="M0 412.82 L7.09 405.73 L7.09 387.73 L0 394.82 L0 412.82 Z" class="st1"/>
			</g>
			<g id="shape62-151" transform="translate(0,-18)">
				<title>Sheet.62</title>
				<path d="M0 412.82 L208.8 412.82 L215.89 405.73 L7.09 405.73 L0 412.82 Z" class="st1"/>
			</g>
			<g id="shape63-153">
				<title>Sheet.63</title>
				<rect x="0" y="394.82" width="208.8" height="18" class="st2"/>
			</g>
			<g id="shape60-155">
				<text x="88.83" y="406.22" class="st16">RAM Disk</text>			</g>
		</g>
		<g id="shape64-157" transform="translate(-59.27,84.02) rotate(-90)">
			<title>Pointer (1-D)</title>
			<path d="M1.71 412.82 L2.07 412.82 L16.08 412.82" class="st18"/>
		</g>
		<g id="shape65-166" transform="translate(-95.27,108.5) rotate(-90)">
			<title>Pointer (1-D).65</title>
			<path d="M1.71 412.82 L2.07 412.82 L18.96 412.82" class="st18"/>
		</g>
		<g id="shape66-173" transform="translate(-52.07,122.9) rotate(-90)">
			<title>Pointer (1-D).66</title>
			<path d="M1.71 412.82 L2.07 412.82 L11.76 412.82" class="st18"/>
		</g>
		<g id="shape67-180" transform="translate(-105.35,137.3) rotate(-90)">
			<title>Pointer (1-D).67</title>
			<path d="M1.71 412.82 L2.07 412.82 L26.16 412.82" class="st18"/>
		</g>
		<g id="shape70-187" transform="translate(228.935,-227.945) scale(-1,1)">
			<title>Sheet.70</title>
			<path d="M2.65 293.24 L3.01 293.24 L76.08 293.24 A22.5 22.5 0 0 1 98.58 315.74 L98.58 404.78" class="st20"/>
		</g>
		<g id="shape68-195" transform="translate(87.15,-289.92)">
			<title>Sheet.68</title>
			<desc>HBIOS Function Call w/ Bank Switch</desc>
			<rect x="0" y="384.02" width="86.4" height="28.8" class="st2"/>
			<text x="7.14" y="395.72" class="st5">HBIOS Function Call <tspan x="15.11" dy="1.2em" class="st10">w/ Bank Switch</tspan></text>		</g>
		<g id="shape69-199" transform="translate(0.75,-390.72)">
			<title>Sheet.69</title>
			<desc>RomWBW Bank Switched Memory Layout</desc>
			<rect x="0" y="391.22" width="432" height="21.6" class="st21"/>
			<text x="113.82" y="405.62" class="st7">RomWBW Bank Switched Memory Layout</text>		</g>
		<g id="shape59-202" transform="translate(665.566,362.226) rotate(90.2396)">
			<title>Sheet.59</title>
			<path d="M0 412.82 L27.11 412.82" class="st17"/>
		</g>
		<g id="shape52-205" transform="translate(16.33,324.5) rotate(-90)">
			<title>Sheet.52</title>
			<desc>Fixed Mapping of Upper 32K to Last Bank</desc>
			<rect x="0" y="398.42" width="172.8" height="14.4" class="st8"/>
			<text x="11.1" y="408.32" class="st5">Fixed Mapping of Upper 32K to Last Bank</text>		</g>
		<g id="shape72-208" transform="translate(331.95,-66.72)">
			<title>Sheet.72</title>
			<path d="M0 384.02 L0 387.62 A3.59999 3.59999 -180 0 0 3.6 391.22 L45.4 391.22 A5 5 0 0 1 50.4 396.22 L50.4 404.78"
					class="st14"/>
		</g>
		<g id="shape74-213" transform="translate(126.75,-66.72) scale(-1,1)">
			<title>Sheet.74</title>
			<path d="M0 384.02 L0 387.62 A3.59999 3.59999 -180 0 0 3.6 391.22 L103 391.22 A5 5 0 0 1 108 396.22 L108 404.78"
					class="st14"/>
		</g>
	</g>
</svg>
