<?xml version="1.0" encoding="UTF-8" standalone="no"?>
<!DOCTYPE svg PUBLIC "-//W3C//DTD SVG 1.1//EN" "http://www.w3.org/Graphics/SVG/1.1/DTD/svg11.dtd">
<!-- Generated by Microsoft Visio, SVG Export hd512.svg Page-1 -->
<svg xmlns="http://www.w3.org/2000/svg" xmlns:xlink="http://www.w3.org/1999/xlink" xmlns:ev="http://www.w3.org/2001/xml-events"
		width="6.51389in" height="3.90694in" viewBox="0 0 469 281.3" xml:space="preserve" color-interpolation-filters="sRGB"
		class="st16">
	<style type="text/css">
	<![CDATA[
		.st1 {fill:#ffffff;stroke:#000000;stroke-linecap:round;stroke-linejoin:round;stroke-width:1}
		.st2 {fill:#000000;font-family:Calibri;font-size:1.5em}
		.st3 {fill:#ffffff;stroke:#000000;stroke-linecap:round;stroke-linejoin:round;stroke-width:0.24}
		.st4 {fill:#000000;font-family:Calibri;font-size:0.666664em}
		.st5 {fill:none;stroke:#000000;stroke-linecap:round;stroke-linejoin:round;stroke-width:1}
		.st6 {fill:#d8d8d8;stroke:#000000;stroke-linecap:round;stroke-linejoin:round;stroke-width:1}
		.st7 {fill:none;stroke:none;stroke-linecap:round;stroke-linejoin:round;stroke-width:0.75}
		.st8 {marker-start:url(#mrkr4-40);stroke:#000000;stroke-linecap:round;stroke-linejoin:round;stroke-width:0.24}
		.st9 {fill:#000000;fill-opacity:1;stroke:#000000;stroke-opacity:1;stroke-width:0.08695652173913}
		.st10 {fill:#000000;font-family:Calibri;font-size:0.499992em}
		.st11 {marker-end:url(#mrkr4-58);stroke:#000000;stroke-linecap:round;stroke-linejoin:round;stroke-width:0.24}
		.st12 {stroke:#000000;stroke-linecap:round;stroke-linejoin:round;stroke-width:0.25}
		.st13 {marker-end:url(#mrkr9-69);marker-start:url(#mrkr4-40);stroke:#000000;stroke-linecap:round;stroke-linejoin:round;stroke-width:0.24}
		.st14 {marker-end:url(#mrkr4-114);stroke:#000000;stroke-dasharray:1.75,1.25;stroke-linecap:round;stroke-linejoin:round;stroke-width:0.25}
		.st15 {fill:#000000;fill-opacity:1;stroke:#000000;stroke-opacity:1;stroke-width:0.090252707581227}
		.st16 {fill:none;fill-rule:evenodd;font-size:12px;overflow:visible;stroke-linecap:square;stroke-miterlimit:3}
	]]>
	</style>

	<defs id="Markers">
		<g id="lend4">
			<path d="M 2 1 L 0 0 L 2 -1 L 2 1 " style="stroke:none"/>
		</g>
		<marker id="mrkr4-40" class="st9" refX="21.5" orient="auto" markerUnits="strokeWidth" overflow="visible">
			<use xlink:href="#lend4" transform="scale(11.5) "/>
		</marker>
		<marker id="mrkr4-58" class="st9" refX="-23" orient="auto" markerUnits="strokeWidth" overflow="visible">
			<use xlink:href="#lend4" transform="scale(-11.5,-11.5) "/>
		</marker>
		<g id="lend9">
			<path d="M 1 -1 L -1 1 " style="stroke-linecap:round;stroke-linejoin:round;fill:none"/>
		</g>
		<marker id="mrkr9-69" class="st9" orient="auto" markerUnits="strokeWidth" overflow="visible">
			<use xlink:href="#lend9" transform="scale(-11.5,-11.5) "/>
		</marker>
		<marker id="mrkr4-114" class="st15" refX="-22.16" orient="auto" markerUnits="strokeWidth" overflow="visible">
			<use xlink:href="#lend4" transform="scale(-11.08,-11.08) "/>
		</marker>
	</defs>
	<g>
		<title>Page-1</title>
		<g id="shape69-1" transform="translate(0.5,-252)">
			<title>Sheet.69</title>
			<desc>RomWBW Hard Disk Anatomy (Classic / hd512)</desc>
			<rect x="0" y="252.5" width="468" height="28.8" class="st1"/>
			<text x="61.63" y="272.3" class="st2">RomWBW Hard Disk Anatomy (Classic / hd512)</text>		</g>
		<g id="shape259-4" transform="translate(50.9,-151.2)">
			<title>Sheet.259</title>
			<desc>0</desc>
			<rect x="0" y="266.9" width="14.4" height="14.4" class="st3"/>
			<text x="5.17" y="276.5" class="st4">0</text>		</g>
		<g id="shape260-7" transform="translate(65.3,-151.2)">
			<title>Sheet.260</title>
			<desc>1</desc>
			<rect x="0" y="266.9" width="14.4" height="14.4" class="st3"/>
			<text x="5.17" y="276.5" class="st4">1</text>		</g>
		<g id="shape261-10" transform="translate(79.7,-151.2)">
			<title>Sheet.261</title>
			<desc>2</desc>
			<rect x="0" y="266.9" width="14.4" height="14.4" class="st3"/>
			<text x="5.17" y="276.5" class="st4">2</text>		</g>
		<g id="shape262-13" transform="translate(94.1,-151.2)">
			<title>Sheet.262</title>
			<desc>3</desc>
			<rect x="0" y="266.9" width="14.4" height="14.4" class="st3"/>
			<text x="5.17" y="276.5" class="st4">3</text>		</g>
		<g id="shape263-16" transform="translate(108.5,-151.2)">
			<title>Sheet.263</title>
			<desc>. . .</desc>
			<rect x="0" y="266.9" width="72" height="14.4" class="st3"/>
			<text x="27.54" y="276.5" class="st4">.   .   .</text>		</g>
		<g id="shape264-19" transform="translate(180.5,-151.2)">
			<title>Sheet.264</title>
			<desc>N</desc>
			<rect x="0" y="266.9" width="14.4" height="14.4" class="st3"/>
			<text x="4.62" y="276.5" class="st4">N</text>		</g>
		<g id="shape265-22" transform="translate(50.9,-151.2)">
			<title>Sheet.265</title>
			<rect x="0" y="266.9" width="144" height="14.4" class="st5"/>
		</g>
		<g id="shape266-24" transform="translate(50.9,-122.4)">
			<title>Sheet.266</title>
			<desc>RomWBW Hard Disk (IDE/ATA/ATAPI/CF/SD/USB)</desc>
			<rect x="0" y="266.9" width="360" height="14.4" class="st6"/>
			<text x="99.2" y="276.5" class="st4">RomWBW Hard Disk (IDE/ATA/ATAPI/CF/SD/USB)</text>		</g>
		<g id="shape267-27" transform="translate(230.9,-136.8)">
			<title>Sheet.267</title>
			<desc>FAT Partition</desc>
			<rect x="0" y="266.9" width="165.6" height="14.4" class="st1"/>
			<text x="61.69" y="276.5" class="st4">FAT Partition</text>		</g>
		<g id="shape268-30" transform="translate(101.3,-43.2)">
			<title>Sheet.268</title>
			<desc>Sector 0</desc>
			<rect x="0" y="266.9" width="72" height="14.4" class="st7"/>
			<text x="22.71" y="276.5" class="st4">Sector 0</text>		</g>
		<g id="shape269-33" transform="translate(158.9,-57.6)">
			<title>Sheet.269</title>
			<rect x="0" y="266.9" width="14.4" height="14.4" class="st3"/>
		</g>
		<g id="shape270-35" transform="translate(50.9,-64.8)">
			<title>Sheet.270</title>
			<path d="M0 228.86 L0 229.22 L0 276.8 A4.5 4.5 -180 0 0 4.5 281.3 L46.08 281.3" class="st8"/>
		</g>
		<g id="shape271-41" transform="translate(209.3,-43.2)">
			<title>Sheet.271</title>
			<desc>Type 06</desc>
			<rect x="0" y="274.1" width="43.2" height="7.2" class="st3"/>
			<text x="11.99" y="279.5" class="st10">Type 06</text>		</g>
		<g id="shape272-44" transform="translate(209.3,-36)">
			<title>Sheet.272</title>
			<rect x="0" y="274.1" width="43.2" height="7.2" class="st3"/>
		</g>
		<g id="shape273-46" transform="translate(209.3,-28.8)">
			<title>Sheet.273</title>
			<rect x="0" y="274.1" width="43.2" height="7.2" class="st3"/>
		</g>
		<g id="shape274-48" transform="translate(209.3,-21.6)">
			<title>Sheet.274</title>
			<rect x="0" y="274.1" width="43.2" height="7.2" class="st3"/>
		</g>
		<g id="shape275-50" transform="translate(202.1,-7.19997)">
			<title>Sheet.275</title>
			<desc>Partition Table</desc>
			<rect x="0" y="266.9" width="57.6" height="14.4" class="st7"/>
			<text x="4.92" y="276.5" class="st4">Partition Table</text>		</g>
		<g id="shape276-53" transform="translate(339.4,65.2999) rotate(90)">
			<title>Sheet.276</title>
			<path d="M0 98.42 L0 258.8 A22.5 22.5 -180 0 0 22.5 281.3 L44.88 281.3" class="st11"/>
		</g>
		<g id="shape277-59" transform="translate(-71.9999,259.7) rotate(-90)">
			<title>Bracket.132</title>
			<path d="M0 281.3 A5.43323 5.43323 0 0 1 4.8 276.5 L9.6 276.5 A5.43323 5.43323 -180 0 0 14.4 271.7 A5.43323 5.43323 -180
						 0 0 19.2 276.5 L24 276.5 A5.43323 5.43323 0 0 1 28.8 281.3" class="st12"/>
		</g>
		<g id="shape278-62" transform="translate(252.5,-180)">
			<title>Sheet.278</title>
			<path d="M0 272.06 L0 272.42 L0 274.1 A7.19998 7.19998 -180 0 0 7.2 281.3 L28.8 281.3" class="st13"/>
		</g>
		<g id="shape279-70" transform="translate(284.9,-172.8)">
			<title>Sheet.279</title>
			<desc>CP/M System Area (128 KB)</desc>
			<rect x="0" y="266.9" width="111.6" height="14.4" class="st7"/>
			<text x="1" y="276.5" class="st4">CP/M System Area (128 KB)</text>		</g>
		<g id="shape280-73" transform="translate(353.8,65.2999) rotate(90)">
			<title>Sheet.280</title>
			<path d="M0 112.82 L0 258.8 A22.5 22.5 -180 0 0 22.5 281.3 L44.88 281.3" class="st11"/>
		</g>
		<g id="shape281-78" transform="translate(368.2,65.2999) rotate(90)">
			<title>Sheet.281</title>
			<path d="M0 127.22 L0 258.8 A22.5 22.5 -180 0 0 22.5 281.3 L44.88 281.3" class="st11"/>
		</g>
		<g id="shape282-83" transform="translate(382.6,65.2999) rotate(90)">
			<title>Sheet.282</title>
			<path d="M0 141.62 L0 258.8 A22.5 22.5 -180 0 0 22.5 281.3 L44.88 281.3" class="st11"/>
		</g>
		<g id="shape283-88" transform="translate(469,65.2999) rotate(90)">
			<title>Sheet.283</title>
			<path d="M0 228.02 L0 258.8 A22.5 22.5 -180 0 0 22.5 281.3 L44.88 281.3" class="st11"/>
		</g>
		<g id="shape284-93" transform="translate(158.9,-68.3999)">
			<title>Sheet.284</title>
			<rect x="0" y="277.7" width="14.4" height="3.6" class="st3"/>
		</g>
		<g id="shape285-95" transform="translate(158.9,-64.7999)">
			<title>Sheet.285</title>
			<rect x="0" y="277.7" width="14.4" height="3.6" class="st3"/>
		</g>
		<g id="shape286-97" transform="translate(158.9,-61.1999)">
			<title>Sheet.286</title>
			<rect x="0" y="277.7" width="14.4" height="3.6" class="st3"/>
		</g>
		<g id="shape287-99" transform="translate(158.9,-57.5999)">
			<title>Sheet.287</title>
			<rect x="0" y="277.7" width="14.4" height="3.6" class="st3"/>
		</g>
		<g id="shape288-101" transform="translate(166.1,-57.6)">
			<title>Stack pointer.179</title>
			<path d="M33.6 302.9 L5.4 302.9 A5.39999 5.39999 0 0 1 0 297.5 L0 292.1 L0 286.82" class="st11"/>
		</g>
		<g id="shape289-106" transform="translate(50.9,-136.8)">
			<title>Sheet.289</title>
			<desc>RomWBW Data (8,320 KB * N)</desc>
			<rect x="0" y="266.9" width="144" height="14.4" class="st1"/>
			<text x="22.71" y="276.5" class="st4">RomWBW Data (8,320 KB * N)</text>		</g>
		<g id="shape293-109" transform="translate(252.5,-46.8)">
			<title>Dynamic connector.207</title>
			<path d="M0 281.3 L17.1 281.3 A4.5 4.5 -180 0 0 21.6 276.8 L21.6 231.8 A4.5 4.5 -180 0 0 17.1 227.3 L-17.1 227.3 A4.5
						 4.5 0 0 1 -21.6 222.8 L-21.6 211.24" class="st14"/>
		</g>
		<g id="shape294-115" transform="translate(101.3,-57.6)">
			<title>Sheet.294</title>
			<desc>MBR</desc>
			<rect x="0" y="266.9" width="72" height="14.4" class="st5"/>
			<text x="28.23" y="276.5" class="st4">MBR</text>		</g>
		<g id="shape295-118" transform="translate(209.156,-21.5999)">
			<title>Sheet.295</title>
			<rect x="0" y="252.5" width="43.344" height="28.8" class="st5"/>
		</g>
		<g id="shape296-120" transform="translate(245.3,-208.8)">
			<title>Sheet.296</title>
			<desc>Slice (8,320 KB)</desc>
			<rect x="0" y="266.9" width="151.2" height="14.4" class="st5"/>
			<text x="50.65" y="276.5" class="st4">Slice (8,320 KB)</text>		</g>
		<g id="shape298-123" transform="translate(245.3,-194.4)">
			<title>Sheet.298</title>
			<rect x="0" y="266.9" width="14.4" height="14.4" class="st3"/>
		</g>
		<g id="shape299-125" transform="translate(245.3,-194.4)">
			<title>Sheet.299</title>
			<desc>CP/M File System (8 MB)</desc>
			<rect x="0" y="266.9" width="151.2" height="14.4" class="st7"/>
			<text x="35.37" y="276.5" class="st4">CP/M File System (8 MB)</text>		</g>
		<g id="shape300-128" transform="translate(245.3,-194.4)">
			<title>Sheet.300</title>
			<rect x="0" y="266.9" width="151.2" height="14.4" class="st5"/>
		</g>
		<g id="shape301-130" transform="translate(-180,223.7) rotate(-90)">
			<title>Bracket.301</title>
			<path d="M-0 281.3 A2.41217 2.41217 0 0 1 2.13 279.17 L5.07 279.17 A2.41217 2.41217 -180 0 0 7.2 277.04 A2.41217 2.41217
						 -180 0 0 9.33 279.17 L12.27 279.17 A2.41217 2.41217 0 0 1 14.4 281.3" class="st12"/>
		</g>
		<g id="shape302-133" transform="translate(-35.9999,72.5) rotate(-90)">
			<title>Bracket.302</title>
			<path d="M-0 281.3 A2.41217 2.41217 0 0 1 2.13 279.17 L5.07 279.17 A2.41217 2.41217 -180 0 0 7.2 277.04 A2.41217 2.41217
						 -180 0 0 9.33 279.17 L12.27 279.17 A2.41217 2.41217 0 0 1 14.4 281.3" class="st12"/>
		</g>
	</g>
</svg>
