<?xml version="1.0" encoding="UTF-8" standalone="no"?>
<!DOCTYPE svg PUBLIC "-//W3C//DTD SVG 1.1//EN" "http://www.w3.org/Graphics/SVG/1.1/DTD/svg11.dtd">
<!-- Generated by Microsoft Visio, SVG Export Logo.svg Page-1 -->
<svg xmlns="http://www.w3.org/2000/svg" xmlns:xlink="http://www.w3.org/1999/xlink" xmlns:ev="http://www.w3.org/2001/xml-events"
		width="3.76042in" height="1.26042in" viewBox="0 0 270.75 90.75" xml:space="preserve" color-interpolation-filters="sRGB"
		class="st3">
	<style type="text/css">
	<![CDATA[
		.st1 {fill:#4bacc6;stroke:#000000;stroke-linecap:round;stroke-linejoin:round;stroke-opacity:0;stroke-width:0.75}
		.st2 {stroke:#4bacc6;stroke-linecap:round;stroke-linejoin:round;stroke-width:18}
		.st3 {fill:none;fill-rule:evenodd;font-size:12px;overflow:visible;stroke-linecap:square;stroke-miterlimit:3}
	]]>
	</style>

	<g>
		<title>Page-1</title>
		<g id="shape34-1" transform="translate(0.375,-0.375)">
			<title>Sheet.34</title>
			<rect x="0" y="0.75" width="18" height="90" rx="9" ry="9" class="st1"/>
		</g>
		<g id="shape35-3" transform="translate(36.375,-0.375)">
			<title>Sheet.35</title>
			<rect x="0" y="36.75" width="18" height="54" rx="9" ry="9" class="st1"/>
		</g>
		<g id="shape36-5" transform="translate(72.375,-0.375)">
			<title>Sheet.36</title>
			<rect x="0" y="0.75" width="18" height="90" rx="9" ry="9" class="st1"/>
		</g>
		<g id="shape38-7" transform="translate(216.375,-0.375)">
			<title>Sheet.38</title>
			<rect x="0" y="36.75" width="18" height="54" rx="9" ry="9" class="st1"/>
		</g>
		<g id="shape39-9" transform="translate(252.375,-0.375)">
			<title>Sheet.39</title>
			<rect x="0" y="0.75" width="18" height="90" rx="9" ry="9" class="st1"/>
		</g>
		<g id="shape44-11" transform="translate(180.375,-0.375)">
			<title>Sheet.44</title>
			<rect x="0" y="0.75" width="18" height="90" rx="9" ry="9" class="st1"/>
		</g>
		<g id="shape48-13" transform="translate(108.375,-72.375)">
			<title>Sheet.48</title>
			<rect x="0" y="72.75" width="36" height="18" rx="9" ry="9" class="st1"/>
		</g>
		<g id="shape49-15" transform="translate(108.375,-36.375)">
			<title>Sheet.49</title>
			<rect x="0" y="72.75" width="36" height="18" rx="9" ry="9" class="st1"/>
		</g>
		<g id="shape50-17" transform="translate(108.375,-0.375)">
			<title>Sheet.50</title>
			<rect x="0" y="72.75" width="36" height="18" rx="9" ry="9" class="st1"/>
		</g>
		<g id="shape52-19" transform="translate(135.375,-45.375)">
			<title>Sheet.52</title>
			<path d="M-0 54.75 A18 18 0 0 1 18 72.75 A18 18 0 0 1 -0 90.75" class="st2"/>
		</g>
		<g id="shape53-22" transform="translate(135.375,-9.375)">
			<title>Sheet.53</title>
			<path d="M-0 54.75 A18 18 0 0 1 18 72.75 A18 18 0 0 1 -0 90.75" class="st2"/>
		</g>
	</g>
</svg>
