<?xml version="1.0" encoding="UTF-8" standalone="no"?>
<!DOCTYPE svg PUBLIC "-//W3C//DTD SVG 1.1//EN" "http://www.w3.org/Graphics/SVG/1.1/DTD/svg11.dtd">
<!-- Generated by Microsoft Visio, SVG Export CharacterEmulationVideoServices.svg Page-1 -->
<svg xmlns="http://www.w3.org/2000/svg" xmlns:xlink="http://www.w3.org/1999/xlink" xmlns:ev="http://www.w3.org/2001/xml-events"
		width="6.01042in" height="5.76042in" viewBox="0 0 432.75 414.75" xml:space="preserve" color-interpolation-filters="sRGB"
		class="st16">
	<style type="text/css">
	<![CDATA[
		.st1 {fill:#ffffff;stroke:#000000;stroke-linecap:round;stroke-linejoin:round;stroke-width:0.75}
		.st2 {fill:#000000;font-family:Calibri;font-size:0.833336em;font-weight:bold}
		.st3 {font-size:1em}
		.st4 {marker-end:url(#mrkr13-15);stroke:#000000;stroke-linecap:round;stroke-linejoin:round;stroke-width:0.75}
		.st5 {fill:#000000;fill-opacity:1;stroke:#000000;stroke-opacity:1;stroke-width:0.22935779816514}
		.st6 {fill:#a5a5a5;stroke:#000000;stroke-linecap:round;stroke-linejoin:round;stroke-width:0.75}
		.st7 {fill:#000000;font-family:Calibri;font-size:0.666664em;font-weight:bold}
		.st8 {fill:#ffffff;stroke:#000000;stroke-linecap:round;stroke-linejoin:round;stroke-width:0.24}
		.st9 {fill:#00ff00;stroke:none;stroke-linecap:round;stroke-linejoin:round;stroke-width:0.75}
		.st10 {fill:#e6e6e6;stroke:none;stroke-linecap:round;stroke-linejoin:round;stroke-width:0.75}
		.st11 {fill:#b3b3b3;stroke:none;stroke-linecap:round;stroke-linejoin:round;stroke-width:0.75}
		.st12 {fill:none;stroke:none;stroke-linecap:round;stroke-linejoin:round;stroke-width:0.75}
		.st13 {fill:#ffffff;stroke:#000000;stroke-dasharray:0.75,1.5;stroke-linecap:round;stroke-linejoin:round;stroke-width:0.75}
		.st14 {fill:#000000;font-family:Calibri;font-size:0.499992em;font-weight:bold}
		.st15 {fill:#000000;font-family:Calibri;font-size:1.16666em;font-weight:bold}
		.st16 {fill:none;fill-rule:evenodd;font-size:12px;overflow:visible;stroke-linecap:square;stroke-miterlimit:3}
	]]>
	</style>

	<defs id="Markers">
		<g id="lend13">
			<path d="M 3 1 L 0 0 L 3 -1 L 3 1 " style="stroke:none"/>
		</g>
		<marker id="mrkr13-15" class="st5" refX="-13.08" orient="auto" markerUnits="strokeWidth" overflow="visible">
			<use xlink:href="#lend13" transform="scale(-4.36,-4.36) "/>
		</marker>
	</defs>
	<g>
		<title>Page-1</title>
		<g id="shape81-1" transform="translate(17.625,414.375) rotate(-90)">
			<title>Sheet.81</title>
			<rect x="0" y="279.75" width="360" height="135" class="st1"/>
		</g>
		<g id="shape80-3" transform="translate(-135.375,414.375) rotate(-90)">
			<title>Sheet.80</title>
			<rect x="0" y="189.75" width="360" height="225" class="st1"/>
		</g>
		<g id="shape1-5" transform="translate(108.539,-315.375)">
			<title>Sheet.1</title>
			<desc>Character I/O Services</desc>
			<rect x="0" y="378.75" width="53.8364" height="36" class="st1"/>
			<text x="6.75" y="387.75" class="st2">Character <tspan x="20.06" dy="1.2em" class="st3">I/O </tspan><tspan x="10.06"
						dy="1.2em" class="st3">Services</tspan></text>		</g>
		<g id="shape2-10" transform="translate(36.375,-333.375)">
			<title>Sheet.2</title>
			<path d="M0 414.75 L62.35 414.75" class="st4"/>
		</g>
		<g id="shape8-16" transform="translate(550.125,153.375) rotate(90)">
			<title>Sheet.8</title>
			<path d="M0 414.75 L17.19 414.75" class="st4"/>
		</g>
		<g id="shape9-21" transform="translate(108.375,-189.375)">
			<title>Sheet.9</title>
			<desc>Emulation Services</desc>
			<rect x="0" y="369.75" width="54" height="45" class="st1"/>
			<text x="5.78" y="389.25" class="st2">Emulation <tspan x="10.14" dy="1.2em" class="st3">Services</tspan></text>		</g>
		<g id="shape10-25" transform="translate(108.375,-171.375)">
			<title>Sheet.10</title>
			<desc>TTY</desc>
			<rect x="0" y="396.75" width="54" height="18" class="st1"/>
			<text x="19.45" y="408.75" class="st2">TTY</text>		</g>
		<g id="shape11-28" transform="translate(108.375,-153.375)">
			<title>Sheet.11</title>
			<desc>ANSI</desc>
			<rect x="0" y="396.75" width="54" height="18" class="st1"/>
			<text x="16.98" y="408.75" class="st2">ANSI</text>		</g>
		<g id="shape12-31" transform="translate(162.211,-180.375)">
			<title>Sheet.12</title>
			<path d="M0 414.75 L17.35 414.75" class="st4"/>
		</g>
		<g id="shape13-36" transform="translate(162.211,-162.375)">
			<title>Sheet.13</title>
			<path d="M0 414.75 L17.35 414.75" class="st4"/>
		</g>
		<g id="shape14-41" transform="translate(189.375,-99.375)">
			<title>Sheet.14</title>
			<desc>Video Display Adapter Services</desc>
			<rect x="0" y="324.75" width="54" height="90" class="st1"/>
			<text x="14.93" y="354.75" class="st2">Video <tspan x="11.88" dy="1.2em" class="st3">Display </tspan><tspan x="10.11"
						dy="1.2em" class="st3">Adapter </tspan><tspan x="10.14" dy="1.2em" class="st3">Services</tspan></text>		</g>
		<g id="shape18-47" transform="translate(243.375,-36.375)">
			<title>Sheet.18</title>
			<path d="M0 414.75 L62.19 414.75" class="st4"/>
		</g>
		<g id="shape27-52" transform="translate(315.375,-315.375)">
			<title>Sheet.27</title>
			<desc>UART</desc>
			<rect x="0" y="396.75" width="44.9182" height="18" class="st6"/>
			<text x="13.19" y="408.15" class="st7">UART</text>		</g>
		<g id="shape34-55" transform="translate(314.311,-261.375)">
			<title>Sheet.34</title>
			<desc>ASCI</desc>
			<rect x="0" y="396.75" width="44.9182" height="18" class="st6"/>
			<text x="14.96" y="408.15" class="st7">ASCI</text>		</g>
		<g id="group20-58" transform="translate(396.375,-94.875)">
			<title>Terminal.20</title>
			<g id="shape36-59" transform="translate(-391.186,414.75) rotate(-90)">
				<title>Sheet.36</title>
				<path d="M0 414.75 L27 414.75 L27 409.08 L0 409.08 L0 414.75 ZM26.25 403.93 L23.44 399.37 L3.53 399.37 L0.75 403.93
							 L26.25 403.93 ZM23.44 399.37 L23.44 391.19 L3.53 391.19 L3.53 399.37 L23.44 399.37 ZM26.25 407.7 L26.25
							 403.93 L0.75 403.93 L0.75 407.7 L26.25 407.7 ZM24.83 407.7 A1223.48 394.162 90 0 1 2.17 407.7 L24.83
							 407.7 Z" class="st8"/>
			</g>
			<g id="shape37-61" transform="translate(-395.768,392.25) rotate(-90)">
				<title>Sheet.37</title>
				<rect x="0" y="414.641" width="0.75" height="0.109091" class="st9"/>
			</g>
			<g id="shape38-63" transform="translate(-391.623,414.188) rotate(-90)">
				<title>Sheet.38</title>
				<path d="M1.69 410.93 L2.63 410.93 L2.63 410.39 L1.69 410.39 L1.69 410.93 ZM2.81 410.93 L3.75 410.93 L3.75 410.39
							 L2.81 410.39 L2.81 410.93 ZM3.94 410.93 L4.87 410.93 L4.87 410.39 L3.94 410.39 L3.94 410.93 ZM5.06 410.93
							 L6 410.93 L6 410.39 L5.06 410.39 L5.06 410.93 ZM12.28 410.93 L13.22 410.93 L13.22 410.39 L12.28 410.39
							 L12.28 410.93 ZM13.41 410.93 L14.34 410.93 L14.34 410.39 L13.41 410.39 L13.41 410.93 ZM14.53 410.93
							 L15.47 410.93 L15.47 410.39 L14.53 410.39 L14.53 410.93 ZM15.66 410.93 L16.59 410.93 L16.59 410.39 L15.66
							 410.39 L15.66 410.93 ZM0 412.02 L1.5 412.02 L1.5 411.48 L0 411.48 L0 412.02 ZM1.69 412.02 L2.63 412.02
							 L2.63 411.48 L1.69 411.48 L1.69 412.02 ZM2.81 412.02 L3.75 412.02 L3.75 411.48 L2.81 411.48 L2.81 412.02
							 ZM3.94 412.02 L4.87 412.02 L4.87 411.48 L3.94 411.48 L3.94 412.02 ZM5.06 412.02 L6 412.02 L6 411.48
							 L5.06 411.48 L5.06 412.02 ZM6.19 412.02 L7.12 412.02 L7.12 411.48 L6.19 411.48 L6.19 412.02 ZM7.31 412.02
							 L8.25 412.02 L8.25 411.48 L7.31 411.48 L7.31 412.02 ZM8.44 412.02 L9.37 412.02 L9.37 411.48 L8.44 411.48
							 L8.44 412.02 ZM9.56 412.02 L10.5 412.02 L10.5 411.48 L9.56 411.48 L9.56 412.02 ZM10.69 412.02 L11.62
							 412.02 L11.62 411.48 L10.69 411.48 L10.69 412.02 ZM11.81 412.02 L12.75 412.02 L12.75 411.48 L11.81 411.48
							 L11.81 412.02 ZM12.94 412.02 L13.87 412.02 L13.87 411.48 L12.94 411.48 L12.94 412.02 ZM14.06 412.02
							 L15 412.02 L15 411.48 L14.06 411.48 L14.06 412.02 ZM1.69 412.7 L2.63 412.7 L2.63 412.16 L1.69 412.16
							 L1.69 412.7 ZM2.81 412.7 L3.75 412.7 L3.75 412.16 L2.81 412.16 L2.81 412.7 ZM3.94 412.7 L4.87 412.7
							 L4.87 412.16 L3.94 412.16 L3.94 412.7 ZM5.06 412.7 L6 412.7 L6 412.16 L5.06 412.16 L5.06 412.7 ZM6.19
							 412.7 L7.12 412.7 L7.12 412.16 L6.19 412.16 L6.19 412.7 ZM7.31 412.7 L8.25 412.7 L8.25 412.16 L7.31
							 412.16 L7.31 412.7 ZM8.44 412.7 L9.37 412.7 L9.37 412.16 L8.44 412.16 L8.44 412.7 ZM9.56 412.7 L10.5
							 412.7 L10.5 412.16 L9.56 412.16 L9.56 412.7 ZM10.69 412.7 L11.62 412.7 L11.62 412.16 L10.69 412.16 L10.69
							 412.7 ZM11.81 412.7 L12.75 412.7 L12.75 412.16 L11.81 412.16 L11.81 412.7 ZM12.94 412.7 L13.87 412.7
							 L13.87 412.16 L12.94 412.16 L12.94 412.7 ZM14.06 412.7 L15 412.7 L15 412.16 L14.06 412.16 L14.06 412.7
							 ZM1.69 413.39 L2.63 413.39 L2.63 412.84 L1.69 412.84 L1.69 413.39 ZM2.81 413.39 L3.75 413.39 L3.75 412.84
							 L2.81 412.84 L2.81 413.39 ZM3.94 413.39 L4.87 413.39 L4.87 412.84 L3.94 412.84 L3.94 413.39 ZM5.06 413.39
							 L6 413.39 L6 412.84 L5.06 412.84 L5.06 413.39 ZM6.19 413.39 L7.12 413.39 L7.12 412.84 L6.19 412.84 L6.19
							 413.39 ZM7.31 413.39 L8.25 413.39 L8.25 412.84 L7.31 412.84 L7.31 413.39 ZM8.44 413.39 L9.37 413.39
							 L9.37 412.84 L8.44 412.84 L8.44 413.39 ZM9.56 413.39 L10.5 413.39 L10.5 412.84 L9.56 412.84 L9.56 413.39
							 ZM10.69 413.39 L11.62 413.39 L11.62 412.84 L10.69 412.84 L10.69 413.39 ZM11.81 413.39 L12.75 413.39
							 L12.75 412.84 L11.81 412.84 L11.81 413.39 ZM12.94 413.39 L13.87 413.39 L13.87 412.84 L12.94 412.84 L12.94
							 413.39 ZM14.06 413.39 L15 413.39 L15 412.84 L14.06 412.84 L14.06 413.39 ZM1.69 414.07 L2.63 414.07 L2.63
							 413.52 L1.69 413.52 L1.69 414.07 ZM2.81 414.07 L3.75 414.07 L3.75 413.52 L2.81 413.52 L2.81 414.07 ZM3.94
							 414.07 L4.87 414.07 L4.87 413.52 L3.94 413.52 L3.94 414.07 ZM5.06 414.07 L6 414.07 L6 413.52 L5.06 413.52
							 L5.06 414.07 ZM6.19 414.07 L7.12 414.07 L7.12 413.52 L6.19 413.52 L6.19 414.07 ZM7.31 414.07 L8.25 414.07
							 L8.25 413.52 L7.31 413.52 L7.31 414.07 ZM8.44 414.07 L9.37 414.07 L9.37 413.52 L8.44 413.52 L8.44 414.07
							 ZM9.56 414.07 L10.5 414.07 L10.5 413.52 L9.56 413.52 L9.56 414.07 ZM10.69 414.07 L11.62 414.07 L11.62
							 413.52 L10.69 413.52 L10.69 414.07 ZM11.81 414.07 L12.75 414.07 L12.75 413.52 L11.81 413.52 L11.81 414.07
							 ZM12.94 414.07 L13.87 414.07 L13.87 413.52 L12.94 413.52 L12.94 414.07 ZM3.94 414.75 L11.62 414.75 L11.62
							 414.2 L3.94 414.2 L3.94 414.75 ZM21 414.75 L23.25 414.75 L23.25 414.2 L21 414.2 L21 414.75 ZM23.44 414.75
							 L24.37 414.75 L24.37 414.2 L23.44 414.2 L23.44 414.75 ZM23.44 414.07 L24.37 414.07 L24.37 413.52 L23.44
							 413.52 L23.44 414.07 ZM22.22 414.07 L23.16 414.07 L23.16 413.52 L22.22 413.52 L22.22 414.07 ZM21 414.07
							 L21.94 414.07 L21.94 413.52 L21 413.52 L21 414.07 ZM21 413.39 L21.94 413.39 L21.94 412.84 L21 412.84
							 L21 413.39 ZM21 412.7 L21.94 412.7 L21.94 412.16 L21 412.16 L21 412.7 ZM22.22 412.7 L23.16 412.7 L23.16
							 412.16 L22.22 412.16 L22.22 412.7 ZM23.44 412.7 L24.37 412.7 L24.37 412.16 L23.44 412.16 L23.44 412.7
							 ZM23.44 413.39 L24.37 413.39 L24.37 412.84 L23.44 412.84 L23.44 413.39 ZM22.22 413.39 L23.16 413.39
							 L23.16 412.84 L22.22 412.84 L22.22 413.39 Z" class="st10"/>
			</g>
			<g id="shape39-65" transform="translate(-391.623,414.188) rotate(-90)">
				<title>Sheet.39</title>
				<path d="M0 410.93 L0.94 410.93 L0.94 410.39 L0 410.39 L0 410.93 ZM0 412.7 L1.5 412.7 L1.5 412.16 L0 412.16 L0 412.7
							 ZM0 413.39 L1.5 413.39 L1.5 412.84 L0 412.84 L0 413.39 ZM0 414.07 L1.5 414.07 L1.5 413.52 L0 413.52
							 L0 414.07 ZM0 414.75 L1.5 414.75 L1.5 414.2 L0 414.2 L0 414.75 ZM1.69 414.75 L2.63 414.75 L2.63 414.2
							 L1.69 414.2 L1.69 414.75 ZM2.81 414.75 L3.75 414.75 L3.75 414.2 L2.81 414.2 L2.81 414.75 ZM11.81 414.75
							 L12.75 414.75 L12.75 414.2 L11.81 414.2 L11.81 414.75 ZM12.94 414.75 L13.87 414.75 L13.87 414.2 L12.94
							 414.2 L12.94 414.75 ZM14.06 414.75 L15 414.75 L15 414.2 L14.06 414.2 L14.06 414.75 ZM15.19 414.75 L16.69
							 414.75 L16.69 414.2 L15.19 414.2 L15.19 414.75 ZM17.25 414.75 L18.19 414.75 L18.19 414.2 L17.25 414.2
							 L17.25 414.75 ZM18.37 414.75 L19.31 414.75 L19.31 414.2 L18.37 414.2 L18.37 414.75 ZM19.5 414.75 L20.44
							 414.75 L20.44 414.2 L19.5 414.2 L19.5 414.75 ZM24.66 414.75 L25.59 414.75 L25.59 413.55 L24.66 413.55
							 L24.66 414.75 ZM24.66 413.44 L25.59 413.44 L25.59 412.16 L24.66 412.16 L24.66 413.44 ZM24.66 412.02
							 L25.59 412.02 L25.59 411.48 L24.66 411.48 L24.66 412.02 ZM23.44 412.02 L24.37 412.02 L24.37 411.48 L23.44
							 411.48 L23.44 412.02 ZM22.22 412.02 L23.16 412.02 L23.16 411.48 L22.22 411.48 L22.22 412.02 ZM21 412.02
							 L21.94 412.02 L21.94 411.48 L21 411.48 L21 412.02 ZM19.5 412.02 L20.44 412.02 L20.44 411.48 L19.5 411.48
							 L19.5 412.02 ZM19.5 412.7 L20.44 412.7 L20.44 412.16 L19.5 412.16 L19.5 412.7 ZM18.37 414.07 L19.31
							 414.07 L19.31 413.52 L18.37 413.52 L18.37 414.07 ZM14.06 414.06 L16.69 414.06 L16.69 413.51 L14.06 413.51
							 L14.06 414.06 ZM15.19 413.37 L16.69 413.37 L16.69 412.17 L15.19 412.17 L15.19 413.37 ZM17.25 412.7 L18.19
							 412.7 L18.19 412.16 L17.25 412.16 L17.25 412.7 ZM18.37 412.7 L19.31 412.7 L19.31 412.16 L18.37 412.16
							 L18.37 412.7 ZM18.37 412.02 L19.31 412.02 L19.31 411.48 L18.37 411.48 L18.37 412.02 ZM15.19 412.02 L16.69
							 412.02 L16.69 411.48 L15.19 411.48 L15.19 412.02 ZM24.19 410.6 L24.94 410.6 L24.94 410.5 L24.19 410.5
							 L24.19 410.6 ZM23.06 410.6 L23.81 410.6 L23.81 410.5 L23.06 410.5 L23.06 410.6 ZM19.5 410.93 L20.44
							 410.93 L20.44 410.39 L19.5 410.39 L19.5 410.93 ZM18.37 410.93 L19.31 410.93 L19.31 410.39 L18.37 410.39
							 L18.37 410.93 ZM17.25 410.93 L18.19 410.93 L18.19 410.39 L17.25 410.39 L17.25 410.93 ZM10.31 410.93
							 L11.25 410.93 L11.25 410.39 L10.31 410.39 L10.31 410.93 ZM9.19 410.93 L10.12 410.93 L10.12 410.39 L9.19
							 410.39 L9.19 410.93 ZM8.06 410.93 L9 410.93 L9 410.39 L8.06 410.39 L8.06 410.93 ZM6.94 410.93 L7.87
							 410.93 L7.87 410.39 L6.94 410.39 L6.94 410.93 ZM17.25 412.02 L18.19 412.02 L18.19 411.48 L17.25 411.48
							 L17.25 412.02 Z" class="st11"/>
			</g>
		</g>
		<g id="shape40-67" transform="translate(315.375,-99.375)">
			<title>Sheet.40</title>
			<desc>CVDU</desc>
			<rect x="0" y="396.75" width="44.9182" height="18" class="st6"/>
			<text x="12.84" y="408.15" class="st7">CVDU</text>		</g>
		<g id="shape41-70" transform="translate(360.293,-108.375)">
			<title>Sheet.41</title>
			<path d="M0 414.75 L26.27 414.75" class="st4"/>
		</g>
		<g id="shape47-75" transform="translate(315.375,-63.375)">
			<title>Sheet.47</title>
			<desc>UPD7220</desc>
			<rect x="0" y="396.75" width="44.9182" height="18" class="st6"/>
			<text x="7.09" y="408.15" class="st7">UPD7220</text>		</g>
		<g id="shape54-78" transform="translate(315.375,-27.375)">
			<title>Sheet.54</title>
			<desc>N8</desc>
			<rect x="0" y="396.75" width="44.9182" height="18" class="st6"/>
			<text x="17.8" y="408.15" class="st7">N8</text>		</g>
		<g id="shape56-81" transform="translate(54.375,-333.375)">
			<title>Sheet.56</title>
			<desc>CIOXXX</desc>
			<rect x="0" y="401.25" width="45" height="13.5" class="st12"/>
			<text x="10" y="410.4" class="st7">CIOXXX</text>		</g>
		<g id="shape57-84" transform="translate(54.375,-117.375)">
			<title>Sheet.57</title>
			<desc>VDAXXX</desc>
			<rect x="0" y="401.25" width="45" height="13.5" class="st12"/>
			<text x="8.58" y="410.4" class="st7">VDAXXX</text>		</g>
		<g id="shape58-87" transform="translate(-378.375,414.375) rotate(-90)">
			<title>Sheet.58</title>
			<desc>Operating System / Utilities</desc>
			<rect x="0" y="378.75" width="360" height="36" class="st1"/>
			<text x="122.42" y="399.75" class="st2">Operating System / Utilities</text>		</g>
		<g id="shape59-90" transform="translate(108.375,-135.375)">
			<title>Sheet.59</title>
			<desc>Others...</desc>
			<path d="M0 414.75 L54 414.75 L54 396.75 L0 396.75 L0 414.75 Z" class="st13"/>
			<text x="8.91" y="408.75" class="st2">Others...</text>		</g>
		<g id="shape60-93" transform="translate(162.211,-144.375)">
			<title>Sheet.60</title>
			<path d="M0 414.75 L17.35 414.75" class="st4"/>
		</g>
		<g id="shape61-98" transform="translate(36.375,-211.875)">
			<title>Sheet.61</title>
			<path d="M0 414.75 L62.19 414.75" class="st4"/>
		</g>
		<g id="shape62-103" transform="translate(54.375,-211.875)">
			<title>Sheet.62</title>
			<desc>EMUXXX</desc>
			<rect x="0" y="401.25" width="45" height="13.5" class="st12"/>
			<text x="7.83" y="410.4" class="st7">EMUXXX</text>		</g>
		<g id="shape15-106" transform="translate(36.375,-117.375)">
			<title>Sheet.15</title>
			<path d="M0 414.75 L143.19 414.75" class="st4"/>
		</g>
		<g id="group16-111" transform="translate(396.375,-58.875)">
			<title>Terminal.16</title>
			<g id="shape42-112" transform="translate(-391.186,414.75) rotate(-90)">
				<title>Sheet.42</title>
				<path d="M0 414.75 L27 414.75 L27 409.08 L0 409.08 L0 414.75 ZM26.25 403.93 L23.44 399.37 L3.53 399.37 L0.75 403.93
							 L26.25 403.93 ZM23.44 399.37 L23.44 391.19 L3.53 391.19 L3.53 399.37 L23.44 399.37 ZM26.25 407.7 L26.25
							 403.93 L0.75 403.93 L0.75 407.7 L26.25 407.7 ZM24.83 407.7 A1223.48 394.162 90 0 1 2.17 407.7 L24.83
							 407.7 Z" class="st8"/>
			</g>
			<g id="shape43-114" transform="translate(-395.768,392.25) rotate(-90)">
				<title>Sheet.43</title>
				<rect x="0" y="414.641" width="0.75" height="0.109091" class="st9"/>
			</g>
			<g id="shape44-116" transform="translate(-391.623,414.188) rotate(-90)">
				<title>Sheet.44</title>
				<path d="M1.69 410.93 L2.63 410.93 L2.63 410.39 L1.69 410.39 L1.69 410.93 ZM2.81 410.93 L3.75 410.93 L3.75 410.39
							 L2.81 410.39 L2.81 410.93 ZM3.94 410.93 L4.87 410.93 L4.87 410.39 L3.94 410.39 L3.94 410.93 ZM5.06 410.93
							 L6 410.93 L6 410.39 L5.06 410.39 L5.06 410.93 ZM12.28 410.93 L13.22 410.93 L13.22 410.39 L12.28 410.39
							 L12.28 410.93 ZM13.41 410.93 L14.34 410.93 L14.34 410.39 L13.41 410.39 L13.41 410.93 ZM14.53 410.93
							 L15.47 410.93 L15.47 410.39 L14.53 410.39 L14.53 410.93 ZM15.66 410.93 L16.59 410.93 L16.59 410.39 L15.66
							 410.39 L15.66 410.93 ZM0 412.02 L1.5 412.02 L1.5 411.48 L0 411.48 L0 412.02 ZM1.69 412.02 L2.63 412.02
							 L2.63 411.48 L1.69 411.48 L1.69 412.02 ZM2.81 412.02 L3.75 412.02 L3.75 411.48 L2.81 411.48 L2.81 412.02
							 ZM3.94 412.02 L4.87 412.02 L4.87 411.48 L3.94 411.48 L3.94 412.02 ZM5.06 412.02 L6 412.02 L6 411.48
							 L5.06 411.48 L5.06 412.02 ZM6.19 412.02 L7.12 412.02 L7.12 411.48 L6.19 411.48 L6.19 412.02 ZM7.31 412.02
							 L8.25 412.02 L8.25 411.48 L7.31 411.48 L7.31 412.02 ZM8.44 412.02 L9.37 412.02 L9.37 411.48 L8.44 411.48
							 L8.44 412.02 ZM9.56 412.02 L10.5 412.02 L10.5 411.48 L9.56 411.48 L9.56 412.02 ZM10.69 412.02 L11.62
							 412.02 L11.62 411.48 L10.69 411.48 L10.69 412.02 ZM11.81 412.02 L12.75 412.02 L12.75 411.48 L11.81 411.48
							 L11.81 412.02 ZM12.94 412.02 L13.87 412.02 L13.87 411.48 L12.94 411.48 L12.94 412.02 ZM14.06 412.02
							 L15 412.02 L15 411.48 L14.06 411.48 L14.06 412.02 ZM1.69 412.7 L2.63 412.7 L2.63 412.16 L1.69 412.16
							 L1.69 412.7 ZM2.81 412.7 L3.75 412.7 L3.75 412.16 L2.81 412.16 L2.81 412.7 ZM3.94 412.7 L4.87 412.7
							 L4.87 412.16 L3.94 412.16 L3.94 412.7 ZM5.06 412.7 L6 412.7 L6 412.16 L5.06 412.16 L5.06 412.7 ZM6.19
							 412.7 L7.12 412.7 L7.12 412.16 L6.19 412.16 L6.19 412.7 ZM7.31 412.7 L8.25 412.7 L8.25 412.16 L7.31
							 412.16 L7.31 412.7 ZM8.44 412.7 L9.37 412.7 L9.37 412.16 L8.44 412.16 L8.44 412.7 ZM9.56 412.7 L10.5
							 412.7 L10.5 412.16 L9.56 412.16 L9.56 412.7 ZM10.69 412.7 L11.62 412.7 L11.62 412.16 L10.69 412.16 L10.69
							 412.7 ZM11.81 412.7 L12.75 412.7 L12.75 412.16 L11.81 412.16 L11.81 412.7 ZM12.94 412.7 L13.87 412.7
							 L13.87 412.16 L12.94 412.16 L12.94 412.7 ZM14.06 412.7 L15 412.7 L15 412.16 L14.06 412.16 L14.06 412.7
							 ZM1.69 413.39 L2.63 413.39 L2.63 412.84 L1.69 412.84 L1.69 413.39 ZM2.81 413.39 L3.75 413.39 L3.75 412.84
							 L2.81 412.84 L2.81 413.39 ZM3.94 413.39 L4.87 413.39 L4.87 412.84 L3.94 412.84 L3.94 413.39 ZM5.06 413.39
							 L6 413.39 L6 412.84 L5.06 412.84 L5.06 413.39 ZM6.19 413.39 L7.12 413.39 L7.12 412.84 L6.19 412.84 L6.19
							 413.39 ZM7.31 413.39 L8.25 413.39 L8.25 412.84 L7.31 412.84 L7.31 413.39 ZM8.44 413.39 L9.37 413.39
							 L9.37 412.84 L8.44 412.84 L8.44 413.39 ZM9.56 413.39 L10.5 413.39 L10.5 412.84 L9.56 412.84 L9.56 413.39
							 ZM10.69 413.39 L11.62 413.39 L11.62 412.84 L10.69 412.84 L10.69 413.39 ZM11.81 413.39 L12.75 413.39
							 L12.75 412.84 L11.81 412.84 L11.81 413.39 ZM12.94 413.39 L13.87 413.39 L13.87 412.84 L12.94 412.84 L12.94
							 413.39 ZM14.06 413.39 L15 413.39 L15 412.84 L14.06 412.84 L14.06 413.39 ZM1.69 414.07 L2.63 414.07 L2.63
							 413.52 L1.69 413.52 L1.69 414.07 ZM2.81 414.07 L3.75 414.07 L3.75 413.52 L2.81 413.52 L2.81 414.07 ZM3.94
							 414.07 L4.87 414.07 L4.87 413.52 L3.94 413.52 L3.94 414.07 ZM5.06 414.07 L6 414.07 L6 413.52 L5.06 413.52
							 L5.06 414.07 ZM6.19 414.07 L7.12 414.07 L7.12 413.52 L6.19 413.52 L6.19 414.07 ZM7.31 414.07 L8.25 414.07
							 L8.25 413.52 L7.31 413.52 L7.31 414.07 ZM8.44 414.07 L9.37 414.07 L9.37 413.52 L8.44 413.52 L8.44 414.07
							 ZM9.56 414.07 L10.5 414.07 L10.5 413.52 L9.56 413.52 L9.56 414.07 ZM10.69 414.07 L11.62 414.07 L11.62
							 413.52 L10.69 413.52 L10.69 414.07 ZM11.81 414.07 L12.75 414.07 L12.75 413.52 L11.81 413.52 L11.81 414.07
							 ZM12.94 414.07 L13.87 414.07 L13.87 413.52 L12.94 413.52 L12.94 414.07 ZM3.94 414.75 L11.62 414.75 L11.62
							 414.2 L3.94 414.2 L3.94 414.75 ZM21 414.75 L23.25 414.75 L23.25 414.2 L21 414.2 L21 414.75 ZM23.44 414.75
							 L24.37 414.75 L24.37 414.2 L23.44 414.2 L23.44 414.75 ZM23.44 414.07 L24.37 414.07 L24.37 413.52 L23.44
							 413.52 L23.44 414.07 ZM22.22 414.07 L23.16 414.07 L23.16 413.52 L22.22 413.52 L22.22 414.07 ZM21 414.07
							 L21.94 414.07 L21.94 413.52 L21 413.52 L21 414.07 ZM21 413.39 L21.94 413.39 L21.94 412.84 L21 412.84
							 L21 413.39 ZM21 412.7 L21.94 412.7 L21.94 412.16 L21 412.16 L21 412.7 ZM22.22 412.7 L23.16 412.7 L23.16
							 412.16 L22.22 412.16 L22.22 412.7 ZM23.44 412.7 L24.37 412.7 L24.37 412.16 L23.44 412.16 L23.44 412.7
							 ZM23.44 413.39 L24.37 413.39 L24.37 412.84 L23.44 412.84 L23.44 413.39 ZM22.22 413.39 L23.16 413.39
							 L23.16 412.84 L22.22 412.84 L22.22 413.39 Z" class="st10"/>
			</g>
			<g id="shape45-118" transform="translate(-391.623,414.188) rotate(-90)">
				<title>Sheet.45</title>
				<path d="M0 410.93 L0.94 410.93 L0.94 410.39 L0 410.39 L0 410.93 ZM0 412.7 L1.5 412.7 L1.5 412.16 L0 412.16 L0 412.7
							 ZM0 413.39 L1.5 413.39 L1.5 412.84 L0 412.84 L0 413.39 ZM0 414.07 L1.5 414.07 L1.5 413.52 L0 413.52
							 L0 414.07 ZM0 414.75 L1.5 414.75 L1.5 414.2 L0 414.2 L0 414.75 ZM1.69 414.75 L2.63 414.75 L2.63 414.2
							 L1.69 414.2 L1.69 414.75 ZM2.81 414.75 L3.75 414.75 L3.75 414.2 L2.81 414.2 L2.81 414.75 ZM11.81 414.75
							 L12.75 414.75 L12.75 414.2 L11.81 414.2 L11.81 414.75 ZM12.94 414.75 L13.87 414.75 L13.87 414.2 L12.94
							 414.2 L12.94 414.75 ZM14.06 414.75 L15 414.75 L15 414.2 L14.06 414.2 L14.06 414.75 ZM15.19 414.75 L16.69
							 414.75 L16.69 414.2 L15.19 414.2 L15.19 414.75 ZM17.25 414.75 L18.19 414.75 L18.19 414.2 L17.25 414.2
							 L17.25 414.75 ZM18.37 414.75 L19.31 414.75 L19.31 414.2 L18.37 414.2 L18.37 414.75 ZM19.5 414.75 L20.44
							 414.75 L20.44 414.2 L19.5 414.2 L19.5 414.75 ZM24.66 414.75 L25.59 414.75 L25.59 413.55 L24.66 413.55
							 L24.66 414.75 ZM24.66 413.44 L25.59 413.44 L25.59 412.16 L24.66 412.16 L24.66 413.44 ZM24.66 412.02
							 L25.59 412.02 L25.59 411.48 L24.66 411.48 L24.66 412.02 ZM23.44 412.02 L24.37 412.02 L24.37 411.48 L23.44
							 411.48 L23.44 412.02 ZM22.22 412.02 L23.16 412.02 L23.16 411.48 L22.22 411.48 L22.22 412.02 ZM21 412.02
							 L21.94 412.02 L21.94 411.48 L21 411.48 L21 412.02 ZM19.5 412.02 L20.44 412.02 L20.44 411.48 L19.5 411.48
							 L19.5 412.02 ZM19.5 412.7 L20.44 412.7 L20.44 412.16 L19.5 412.16 L19.5 412.7 ZM18.37 414.07 L19.31
							 414.07 L19.31 413.52 L18.37 413.52 L18.37 414.07 ZM14.06 414.06 L16.69 414.06 L16.69 413.51 L14.06 413.51
							 L14.06 414.06 ZM15.19 413.37 L16.69 413.37 L16.69 412.17 L15.19 412.17 L15.19 413.37 ZM17.25 412.7 L18.19
							 412.7 L18.19 412.16 L17.25 412.16 L17.25 412.7 ZM18.37 412.7 L19.31 412.7 L19.31 412.16 L18.37 412.16
							 L18.37 412.7 ZM18.37 412.02 L19.31 412.02 L19.31 411.48 L18.37 411.48 L18.37 412.02 ZM15.19 412.02 L16.69
							 412.02 L16.69 411.48 L15.19 411.48 L15.19 412.02 ZM24.19 410.6 L24.94 410.6 L24.94 410.5 L24.19 410.5
							 L24.19 410.6 ZM23.06 410.6 L23.81 410.6 L23.81 410.5 L23.06 410.5 L23.06 410.6 ZM19.5 410.93 L20.44
							 410.93 L20.44 410.39 L19.5 410.39 L19.5 410.93 ZM18.37 410.93 L19.31 410.93 L19.31 410.39 L18.37 410.39
							 L18.37 410.93 ZM17.25 410.93 L18.19 410.93 L18.19 410.39 L17.25 410.39 L17.25 410.93 ZM10.31 410.93
							 L11.25 410.93 L11.25 410.39 L10.31 410.39 L10.31 410.93 ZM9.19 410.93 L10.12 410.93 L10.12 410.39 L9.19
							 410.39 L9.19 410.93 ZM8.06 410.93 L9 410.93 L9 410.39 L8.06 410.39 L8.06 410.93 ZM6.94 410.93 L7.87
							 410.93 L7.87 410.39 L6.94 410.39 L6.94 410.93 ZM17.25 412.02 L18.19 412.02 L18.19 411.48 L17.25 411.48
							 L17.25 412.02 Z" class="st11"/>
			</g>
		</g>
		<g id="shape46-120" transform="translate(360.375,-72.375)">
			<title>Sheet.46</title>
			<path d="M0 414.75 L26.19 414.75" class="st4"/>
		</g>
		<g id="group48-125" transform="translate(396.436,-22.875)">
			<title>Terminal.48</title>
			<g id="shape49-126" transform="translate(-391.186,414.75) rotate(-90)">
				<title>Sheet.49</title>
				<path d="M0 414.75 L27 414.75 L27 409.08 L0 409.08 L0 414.75 ZM26.25 403.93 L23.44 399.37 L3.53 399.37 L0.75 403.93
							 L26.25 403.93 ZM23.44 399.37 L23.44 391.19 L3.53 391.19 L3.53 399.37 L23.44 399.37 ZM26.25 407.7 L26.25
							 403.93 L0.75 403.93 L0.75 407.7 L26.25 407.7 ZM24.83 407.7 A1223.48 394.162 90 0 1 2.17 407.7 L24.83
							 407.7 Z" class="st8"/>
			</g>
			<g id="shape50-128" transform="translate(-395.768,392.25) rotate(-90)">
				<title>Sheet.50</title>
				<rect x="0" y="414.641" width="0.75" height="0.109091" class="st9"/>
			</g>
			<g id="shape51-130" transform="translate(-391.623,414.188) rotate(-90)">
				<title>Sheet.51</title>
				<path d="M1.69 410.93 L2.63 410.93 L2.63 410.39 L1.69 410.39 L1.69 410.93 ZM2.81 410.93 L3.75 410.93 L3.75 410.39
							 L2.81 410.39 L2.81 410.93 ZM3.94 410.93 L4.87 410.93 L4.87 410.39 L3.94 410.39 L3.94 410.93 ZM5.06 410.93
							 L6 410.93 L6 410.39 L5.06 410.39 L5.06 410.93 ZM12.28 410.93 L13.22 410.93 L13.22 410.39 L12.28 410.39
							 L12.28 410.93 ZM13.41 410.93 L14.34 410.93 L14.34 410.39 L13.41 410.39 L13.41 410.93 ZM14.53 410.93
							 L15.47 410.93 L15.47 410.39 L14.53 410.39 L14.53 410.93 ZM15.66 410.93 L16.59 410.93 L16.59 410.39 L15.66
							 410.39 L15.66 410.93 ZM0 412.02 L1.5 412.02 L1.5 411.48 L0 411.48 L0 412.02 ZM1.69 412.02 L2.63 412.02
							 L2.63 411.48 L1.69 411.48 L1.69 412.02 ZM2.81 412.02 L3.75 412.02 L3.75 411.48 L2.81 411.48 L2.81 412.02
							 ZM3.94 412.02 L4.87 412.02 L4.87 411.48 L3.94 411.48 L3.94 412.02 ZM5.06 412.02 L6 412.02 L6 411.48
							 L5.06 411.48 L5.06 412.02 ZM6.19 412.02 L7.12 412.02 L7.12 411.48 L6.19 411.48 L6.19 412.02 ZM7.31 412.02
							 L8.25 412.02 L8.25 411.48 L7.31 411.48 L7.31 412.02 ZM8.44 412.02 L9.37 412.02 L9.37 411.48 L8.44 411.48
							 L8.44 412.02 ZM9.56 412.02 L10.5 412.02 L10.5 411.48 L9.56 411.48 L9.56 412.02 ZM10.69 412.02 L11.62
							 412.02 L11.62 411.48 L10.69 411.48 L10.69 412.02 ZM11.81 412.02 L12.75 412.02 L12.75 411.48 L11.81 411.48
							 L11.81 412.02 ZM12.94 412.02 L13.87 412.02 L13.87 411.48 L12.94 411.48 L12.94 412.02 ZM14.06 412.02
							 L15 412.02 L15 411.48 L14.06 411.48 L14.06 412.02 ZM1.69 412.7 L2.63 412.7 L2.63 412.16 L1.69 412.16
							 L1.69 412.7 ZM2.81 412.7 L3.75 412.7 L3.75 412.16 L2.81 412.16 L2.81 412.7 ZM3.94 412.7 L4.87 412.7
							 L4.87 412.16 L3.94 412.16 L3.94 412.7 ZM5.06 412.7 L6 412.7 L6 412.16 L5.06 412.16 L5.06 412.7 ZM6.19
							 412.7 L7.12 412.7 L7.12 412.16 L6.19 412.16 L6.19 412.7 ZM7.31 412.7 L8.25 412.7 L8.25 412.16 L7.31
							 412.16 L7.31 412.7 ZM8.44 412.7 L9.37 412.7 L9.37 412.16 L8.44 412.16 L8.44 412.7 ZM9.56 412.7 L10.5
							 412.7 L10.5 412.16 L9.56 412.16 L9.56 412.7 ZM10.69 412.7 L11.62 412.7 L11.62 412.16 L10.69 412.16 L10.69
							 412.7 ZM11.81 412.7 L12.75 412.7 L12.75 412.16 L11.81 412.16 L11.81 412.7 ZM12.94 412.7 L13.87 412.7
							 L13.87 412.16 L12.94 412.16 L12.94 412.7 ZM14.06 412.7 L15 412.7 L15 412.16 L14.06 412.16 L14.06 412.7
							 ZM1.69 413.39 L2.63 413.39 L2.63 412.84 L1.69 412.84 L1.69 413.39 ZM2.81 413.39 L3.75 413.39 L3.75 412.84
							 L2.81 412.84 L2.81 413.39 ZM3.94 413.39 L4.87 413.39 L4.87 412.84 L3.94 412.84 L3.94 413.39 ZM5.06 413.39
							 L6 413.39 L6 412.84 L5.06 412.84 L5.06 413.39 ZM6.19 413.39 L7.12 413.39 L7.12 412.84 L6.19 412.84 L6.19
							 413.39 ZM7.31 413.39 L8.25 413.39 L8.25 412.84 L7.31 412.84 L7.31 413.39 ZM8.44 413.39 L9.37 413.39
							 L9.37 412.84 L8.44 412.84 L8.44 413.39 ZM9.56 413.39 L10.5 413.39 L10.5 412.84 L9.56 412.84 L9.56 413.39
							 ZM10.69 413.39 L11.62 413.39 L11.62 412.84 L10.69 412.84 L10.69 413.39 ZM11.81 413.39 L12.75 413.39
							 L12.75 412.84 L11.81 412.84 L11.81 413.39 ZM12.94 413.39 L13.87 413.39 L13.87 412.84 L12.94 412.84 L12.94
							 413.39 ZM14.06 413.39 L15 413.39 L15 412.84 L14.06 412.84 L14.06 413.39 ZM1.69 414.07 L2.63 414.07 L2.63
							 413.52 L1.69 413.52 L1.69 414.07 ZM2.81 414.07 L3.75 414.07 L3.75 413.52 L2.81 413.52 L2.81 414.07 ZM3.94
							 414.07 L4.87 414.07 L4.87 413.52 L3.94 413.52 L3.94 414.07 ZM5.06 414.07 L6 414.07 L6 413.52 L5.06 413.52
							 L5.06 414.07 ZM6.19 414.07 L7.12 414.07 L7.12 413.52 L6.19 413.52 L6.19 414.07 ZM7.31 414.07 L8.25 414.07
							 L8.25 413.52 L7.31 413.52 L7.31 414.07 ZM8.44 414.07 L9.37 414.07 L9.37 413.52 L8.44 413.52 L8.44 414.07
							 ZM9.56 414.07 L10.5 414.07 L10.5 413.52 L9.56 413.52 L9.56 414.07 ZM10.69 414.07 L11.62 414.07 L11.62
							 413.52 L10.69 413.52 L10.69 414.07 ZM11.81 414.07 L12.75 414.07 L12.75 413.52 L11.81 413.52 L11.81 414.07
							 ZM12.94 414.07 L13.87 414.07 L13.87 413.52 L12.94 413.52 L12.94 414.07 ZM3.94 414.75 L11.62 414.75 L11.62
							 414.2 L3.94 414.2 L3.94 414.75 ZM21 414.75 L23.25 414.75 L23.25 414.2 L21 414.2 L21 414.75 ZM23.44 414.75
							 L24.37 414.75 L24.37 414.2 L23.44 414.2 L23.44 414.75 ZM23.44 414.07 L24.37 414.07 L24.37 413.52 L23.44
							 413.52 L23.44 414.07 ZM22.22 414.07 L23.16 414.07 L23.16 413.52 L22.22 413.52 L22.22 414.07 ZM21 414.07
							 L21.94 414.07 L21.94 413.52 L21 413.52 L21 414.07 ZM21 413.39 L21.94 413.39 L21.94 412.84 L21 412.84
							 L21 413.39 ZM21 412.7 L21.94 412.7 L21.94 412.16 L21 412.16 L21 412.7 ZM22.22 412.7 L23.16 412.7 L23.16
							 412.16 L22.22 412.16 L22.22 412.7 ZM23.44 412.7 L24.37 412.7 L24.37 412.16 L23.44 412.16 L23.44 412.7
							 ZM23.44 413.39 L24.37 413.39 L24.37 412.84 L23.44 412.84 L23.44 413.39 ZM22.22 413.39 L23.16 413.39
							 L23.16 412.84 L22.22 412.84 L22.22 413.39 Z" class="st10"/>
			</g>
			<g id="shape52-132" transform="translate(-391.623,414.188) rotate(-90)">
				<title>Sheet.52</title>
				<path d="M0 410.93 L0.94 410.93 L0.94 410.39 L0 410.39 L0 410.93 ZM0 412.7 L1.5 412.7 L1.5 412.16 L0 412.16 L0 412.7
							 ZM0 413.39 L1.5 413.39 L1.5 412.84 L0 412.84 L0 413.39 ZM0 414.07 L1.5 414.07 L1.5 413.52 L0 413.52
							 L0 414.07 ZM0 414.75 L1.5 414.75 L1.5 414.2 L0 414.2 L0 414.75 ZM1.69 414.75 L2.63 414.75 L2.63 414.2
							 L1.69 414.2 L1.69 414.75 ZM2.81 414.75 L3.75 414.75 L3.75 414.2 L2.81 414.2 L2.81 414.75 ZM11.81 414.75
							 L12.75 414.75 L12.75 414.2 L11.81 414.2 L11.81 414.75 ZM12.94 414.75 L13.87 414.75 L13.87 414.2 L12.94
							 414.2 L12.94 414.75 ZM14.06 414.75 L15 414.75 L15 414.2 L14.06 414.2 L14.06 414.75 ZM15.19 414.75 L16.69
							 414.75 L16.69 414.2 L15.19 414.2 L15.19 414.75 ZM17.25 414.75 L18.19 414.75 L18.19 414.2 L17.25 414.2
							 L17.25 414.75 ZM18.37 414.75 L19.31 414.75 L19.31 414.2 L18.37 414.2 L18.37 414.75 ZM19.5 414.75 L20.44
							 414.75 L20.44 414.2 L19.5 414.2 L19.5 414.75 ZM24.66 414.75 L25.59 414.75 L25.59 413.55 L24.66 413.55
							 L24.66 414.75 ZM24.66 413.44 L25.59 413.44 L25.59 412.16 L24.66 412.16 L24.66 413.44 ZM24.66 412.02
							 L25.59 412.02 L25.59 411.48 L24.66 411.48 L24.66 412.02 ZM23.44 412.02 L24.37 412.02 L24.37 411.48 L23.44
							 411.48 L23.44 412.02 ZM22.22 412.02 L23.16 412.02 L23.16 411.48 L22.22 411.48 L22.22 412.02 ZM21 412.02
							 L21.94 412.02 L21.94 411.48 L21 411.48 L21 412.02 ZM19.5 412.02 L20.44 412.02 L20.44 411.48 L19.5 411.48
							 L19.5 412.02 ZM19.5 412.7 L20.44 412.7 L20.44 412.16 L19.5 412.16 L19.5 412.7 ZM18.37 414.07 L19.31
							 414.07 L19.31 413.52 L18.37 413.52 L18.37 414.07 ZM14.06 414.06 L16.69 414.06 L16.69 413.51 L14.06 413.51
							 L14.06 414.06 ZM15.19 413.37 L16.69 413.37 L16.69 412.17 L15.19 412.17 L15.19 413.37 ZM17.25 412.7 L18.19
							 412.7 L18.19 412.16 L17.25 412.16 L17.25 412.7 ZM18.37 412.7 L19.31 412.7 L19.31 412.16 L18.37 412.16
							 L18.37 412.7 ZM18.37 412.02 L19.31 412.02 L19.31 411.48 L18.37 411.48 L18.37 412.02 ZM15.19 412.02 L16.69
							 412.02 L16.69 411.48 L15.19 411.48 L15.19 412.02 ZM24.19 410.6 L24.94 410.6 L24.94 410.5 L24.19 410.5
							 L24.19 410.6 ZM23.06 410.6 L23.81 410.6 L23.81 410.5 L23.06 410.5 L23.06 410.6 ZM19.5 410.93 L20.44
							 410.93 L20.44 410.39 L19.5 410.39 L19.5 410.93 ZM18.37 410.93 L19.31 410.93 L19.31 410.39 L18.37 410.39
							 L18.37 410.93 ZM17.25 410.93 L18.19 410.93 L18.19 410.39 L17.25 410.39 L17.25 410.93 ZM10.31 410.93
							 L11.25 410.93 L11.25 410.39 L10.31 410.39 L10.31 410.93 ZM9.19 410.93 L10.12 410.93 L10.12 410.39 L9.19
							 410.39 L9.19 410.93 ZM8.06 410.93 L9 410.93 L9 410.39 L8.06 410.39 L8.06 410.93 ZM6.94 410.93 L7.87
							 410.93 L7.87 410.39 L6.94 410.39 L6.94 410.93 ZM17.25 412.02 L18.19 412.02 L18.19 411.48 L17.25 411.48
							 L17.25 412.02 Z" class="st11"/>
			</g>
		</g>
		<g id="shape53-134" transform="translate(360.293,-36.375)">
			<title>Sheet.53</title>
			<path d="M0 414.75 L26.27 414.75" class="st4"/>
		</g>
		<g id="group22-139" transform="translate(396.375,-310.875)">
			<title>Terminal.22</title>
			<g id="shape23-140" transform="translate(-391.186,414.75) rotate(-90)">
				<title>Sheet.23</title>
				<path d="M0 414.75 L27 414.75 L27 409.08 L0 409.08 L0 414.75 ZM26.25 403.93 L23.44 399.37 L3.53 399.37 L0.75 403.93
							 L26.25 403.93 ZM23.44 399.37 L23.44 391.19 L3.53 391.19 L3.53 399.37 L23.44 399.37 ZM26.25 407.7 L26.25
							 403.93 L0.75 403.93 L0.75 407.7 L26.25 407.7 ZM24.83 407.7 A1223.48 394.162 90 0 1 2.17 407.7 L24.83
							 407.7 Z" class="st8"/>
			</g>
			<g id="shape24-142" transform="translate(-395.768,392.25) rotate(-90)">
				<title>Sheet.24</title>
				<rect x="0" y="414.641" width="0.75" height="0.109091" class="st9"/>
			</g>
			<g id="shape25-144" transform="translate(-391.623,414.188) rotate(-90)">
				<title>Sheet.25</title>
				<path d="M1.69 410.93 L2.63 410.93 L2.63 410.39 L1.69 410.39 L1.69 410.93 ZM2.81 410.93 L3.75 410.93 L3.75 410.39
							 L2.81 410.39 L2.81 410.93 ZM3.94 410.93 L4.87 410.93 L4.87 410.39 L3.94 410.39 L3.94 410.93 ZM5.06 410.93
							 L6 410.93 L6 410.39 L5.06 410.39 L5.06 410.93 ZM12.28 410.93 L13.22 410.93 L13.22 410.39 L12.28 410.39
							 L12.28 410.93 ZM13.41 410.93 L14.34 410.93 L14.34 410.39 L13.41 410.39 L13.41 410.93 ZM14.53 410.93
							 L15.47 410.93 L15.47 410.39 L14.53 410.39 L14.53 410.93 ZM15.66 410.93 L16.59 410.93 L16.59 410.39 L15.66
							 410.39 L15.66 410.93 ZM0 412.02 L1.5 412.02 L1.5 411.48 L0 411.48 L0 412.02 ZM1.69 412.02 L2.63 412.02
							 L2.63 411.48 L1.69 411.48 L1.69 412.02 ZM2.81 412.02 L3.75 412.02 L3.75 411.48 L2.81 411.48 L2.81 412.02
							 ZM3.94 412.02 L4.87 412.02 L4.87 411.48 L3.94 411.48 L3.94 412.02 ZM5.06 412.02 L6 412.02 L6 411.48
							 L5.06 411.48 L5.06 412.02 ZM6.19 412.02 L7.12 412.02 L7.12 411.48 L6.19 411.48 L6.19 412.02 ZM7.31 412.02
							 L8.25 412.02 L8.25 411.48 L7.31 411.48 L7.31 412.02 ZM8.44 412.02 L9.37 412.02 L9.37 411.48 L8.44 411.48
							 L8.44 412.02 ZM9.56 412.02 L10.5 412.02 L10.5 411.48 L9.56 411.48 L9.56 412.02 ZM10.69 412.02 L11.62
							 412.02 L11.62 411.48 L10.69 411.48 L10.69 412.02 ZM11.81 412.02 L12.75 412.02 L12.75 411.48 L11.81 411.48
							 L11.81 412.02 ZM12.94 412.02 L13.87 412.02 L13.87 411.48 L12.94 411.48 L12.94 412.02 ZM14.06 412.02
							 L15 412.02 L15 411.48 L14.06 411.48 L14.06 412.02 ZM1.69 412.7 L2.63 412.7 L2.63 412.16 L1.69 412.16
							 L1.69 412.7 ZM2.81 412.7 L3.75 412.7 L3.75 412.16 L2.81 412.16 L2.81 412.7 ZM3.94 412.7 L4.87 412.7
							 L4.87 412.16 L3.94 412.16 L3.94 412.7 ZM5.06 412.7 L6 412.7 L6 412.16 L5.06 412.16 L5.06 412.7 ZM6.19
							 412.7 L7.12 412.7 L7.12 412.16 L6.19 412.16 L6.19 412.7 ZM7.31 412.7 L8.25 412.7 L8.25 412.16 L7.31
							 412.16 L7.31 412.7 ZM8.44 412.7 L9.37 412.7 L9.37 412.16 L8.44 412.16 L8.44 412.7 ZM9.56 412.7 L10.5
							 412.7 L10.5 412.16 L9.56 412.16 L9.56 412.7 ZM10.69 412.7 L11.62 412.7 L11.62 412.16 L10.69 412.16 L10.69
							 412.7 ZM11.81 412.7 L12.75 412.7 L12.75 412.16 L11.81 412.16 L11.81 412.7 ZM12.94 412.7 L13.87 412.7
							 L13.87 412.16 L12.94 412.16 L12.94 412.7 ZM14.06 412.7 L15 412.7 L15 412.16 L14.06 412.16 L14.06 412.7
							 ZM1.69 413.39 L2.63 413.39 L2.63 412.84 L1.69 412.84 L1.69 413.39 ZM2.81 413.39 L3.75 413.39 L3.75 412.84
							 L2.81 412.84 L2.81 413.39 ZM3.94 413.39 L4.87 413.39 L4.87 412.84 L3.94 412.84 L3.94 413.39 ZM5.06 413.39
							 L6 413.39 L6 412.84 L5.06 412.84 L5.06 413.39 ZM6.19 413.39 L7.12 413.39 L7.12 412.84 L6.19 412.84 L6.19
							 413.39 ZM7.31 413.39 L8.25 413.39 L8.25 412.84 L7.31 412.84 L7.31 413.39 ZM8.44 413.39 L9.37 413.39
							 L9.37 412.84 L8.44 412.84 L8.44 413.39 ZM9.56 413.39 L10.5 413.39 L10.5 412.84 L9.56 412.84 L9.56 413.39
							 ZM10.69 413.39 L11.62 413.39 L11.62 412.84 L10.69 412.84 L10.69 413.39 ZM11.81 413.39 L12.75 413.39
							 L12.75 412.84 L11.81 412.84 L11.81 413.39 ZM12.94 413.39 L13.87 413.39 L13.87 412.84 L12.94 412.84 L12.94
							 413.39 ZM14.06 413.39 L15 413.39 L15 412.84 L14.06 412.84 L14.06 413.39 ZM1.69 414.07 L2.63 414.07 L2.63
							 413.52 L1.69 413.52 L1.69 414.07 ZM2.81 414.07 L3.75 414.07 L3.75 413.52 L2.81 413.52 L2.81 414.07 ZM3.94
							 414.07 L4.87 414.07 L4.87 413.52 L3.94 413.52 L3.94 414.07 ZM5.06 414.07 L6 414.07 L6 413.52 L5.06 413.52
							 L5.06 414.07 ZM6.19 414.07 L7.12 414.07 L7.12 413.52 L6.19 413.52 L6.19 414.07 ZM7.31 414.07 L8.25 414.07
							 L8.25 413.52 L7.31 413.52 L7.31 414.07 ZM8.44 414.07 L9.37 414.07 L9.37 413.52 L8.44 413.52 L8.44 414.07
							 ZM9.56 414.07 L10.5 414.07 L10.5 413.52 L9.56 413.52 L9.56 414.07 ZM10.69 414.07 L11.62 414.07 L11.62
							 413.52 L10.69 413.52 L10.69 414.07 ZM11.81 414.07 L12.75 414.07 L12.75 413.52 L11.81 413.52 L11.81 414.07
							 ZM12.94 414.07 L13.87 414.07 L13.87 413.52 L12.94 413.52 L12.94 414.07 ZM3.94 414.75 L11.62 414.75 L11.62
							 414.2 L3.94 414.2 L3.94 414.75 ZM21 414.75 L23.25 414.75 L23.25 414.2 L21 414.2 L21 414.75 ZM23.44 414.75
							 L24.37 414.75 L24.37 414.2 L23.44 414.2 L23.44 414.75 ZM23.44 414.07 L24.37 414.07 L24.37 413.52 L23.44
							 413.52 L23.44 414.07 ZM22.22 414.07 L23.16 414.07 L23.16 413.52 L22.22 413.52 L22.22 414.07 ZM21 414.07
							 L21.94 414.07 L21.94 413.52 L21 413.52 L21 414.07 ZM21 413.39 L21.94 413.39 L21.94 412.84 L21 412.84
							 L21 413.39 ZM21 412.7 L21.94 412.7 L21.94 412.16 L21 412.16 L21 412.7 ZM22.22 412.7 L23.16 412.7 L23.16
							 412.16 L22.22 412.16 L22.22 412.7 ZM23.44 412.7 L24.37 412.7 L24.37 412.16 L23.44 412.16 L23.44 412.7
							 ZM23.44 413.39 L24.37 413.39 L24.37 412.84 L23.44 412.84 L23.44 413.39 ZM22.22 413.39 L23.16 413.39
							 L23.16 412.84 L22.22 412.84 L22.22 413.39 Z" class="st10"/>
			</g>
			<g id="shape26-146" transform="translate(-391.623,414.188) rotate(-90)">
				<title>Sheet.26</title>
				<path d="M0 410.93 L0.94 410.93 L0.94 410.39 L0 410.39 L0 410.93 ZM0 412.7 L1.5 412.7 L1.5 412.16 L0 412.16 L0 412.7
							 ZM0 413.39 L1.5 413.39 L1.5 412.84 L0 412.84 L0 413.39 ZM0 414.07 L1.5 414.07 L1.5 413.52 L0 413.52
							 L0 414.07 ZM0 414.75 L1.5 414.75 L1.5 414.2 L0 414.2 L0 414.75 ZM1.69 414.75 L2.63 414.75 L2.63 414.2
							 L1.69 414.2 L1.69 414.75 ZM2.81 414.75 L3.75 414.75 L3.75 414.2 L2.81 414.2 L2.81 414.75 ZM11.81 414.75
							 L12.75 414.75 L12.75 414.2 L11.81 414.2 L11.81 414.75 ZM12.94 414.75 L13.87 414.75 L13.87 414.2 L12.94
							 414.2 L12.94 414.75 ZM14.06 414.75 L15 414.75 L15 414.2 L14.06 414.2 L14.06 414.75 ZM15.19 414.75 L16.69
							 414.75 L16.69 414.2 L15.19 414.2 L15.19 414.75 ZM17.25 414.75 L18.19 414.75 L18.19 414.2 L17.25 414.2
							 L17.25 414.75 ZM18.37 414.75 L19.31 414.75 L19.31 414.2 L18.37 414.2 L18.37 414.75 ZM19.5 414.75 L20.44
							 414.75 L20.44 414.2 L19.5 414.2 L19.5 414.75 ZM24.66 414.75 L25.59 414.75 L25.59 413.55 L24.66 413.55
							 L24.66 414.75 ZM24.66 413.44 L25.59 413.44 L25.59 412.16 L24.66 412.16 L24.66 413.44 ZM24.66 412.02
							 L25.59 412.02 L25.59 411.48 L24.66 411.48 L24.66 412.02 ZM23.44 412.02 L24.37 412.02 L24.37 411.48 L23.44
							 411.48 L23.44 412.02 ZM22.22 412.02 L23.16 412.02 L23.16 411.48 L22.22 411.48 L22.22 412.02 ZM21 412.02
							 L21.94 412.02 L21.94 411.48 L21 411.48 L21 412.02 ZM19.5 412.02 L20.44 412.02 L20.44 411.48 L19.5 411.48
							 L19.5 412.02 ZM19.5 412.7 L20.44 412.7 L20.44 412.16 L19.5 412.16 L19.5 412.7 ZM18.37 414.07 L19.31
							 414.07 L19.31 413.52 L18.37 413.52 L18.37 414.07 ZM14.06 414.06 L16.69 414.06 L16.69 413.51 L14.06 413.51
							 L14.06 414.06 ZM15.19 413.37 L16.69 413.37 L16.69 412.17 L15.19 412.17 L15.19 413.37 ZM17.25 412.7 L18.19
							 412.7 L18.19 412.16 L17.25 412.16 L17.25 412.7 ZM18.37 412.7 L19.31 412.7 L19.31 412.16 L18.37 412.16
							 L18.37 412.7 ZM18.37 412.02 L19.31 412.02 L19.31 411.48 L18.37 411.48 L18.37 412.02 ZM15.19 412.02 L16.69
							 412.02 L16.69 411.48 L15.19 411.48 L15.19 412.02 ZM24.19 410.6 L24.94 410.6 L24.94 410.5 L24.19 410.5
							 L24.19 410.6 ZM23.06 410.6 L23.81 410.6 L23.81 410.5 L23.06 410.5 L23.06 410.6 ZM19.5 410.93 L20.44
							 410.93 L20.44 410.39 L19.5 410.39 L19.5 410.93 ZM18.37 410.93 L19.31 410.93 L19.31 410.39 L18.37 410.39
							 L18.37 410.93 ZM17.25 410.93 L18.19 410.93 L18.19 410.39 L17.25 410.39 L17.25 410.93 ZM10.31 410.93
							 L11.25 410.93 L11.25 410.39 L10.31 410.39 L10.31 410.93 ZM9.19 410.93 L10.12 410.93 L10.12 410.39 L9.19
							 410.39 L9.19 410.93 ZM8.06 410.93 L9 410.93 L9 410.39 L8.06 410.39 L8.06 410.93 ZM6.94 410.93 L7.87
							 410.93 L7.87 410.39 L6.94 410.39 L6.94 410.93 ZM17.25 412.02 L18.19 412.02 L18.19 411.48 L17.25 411.48
							 L17.25 412.02 Z" class="st11"/>
			</g>
		</g>
		<g id="shape28-148" transform="translate(360.293,-324.375)">
			<title>Sheet.28</title>
			<path d="M0 414.75 L26.27 414.75" class="st4"/>
		</g>
		<g id="group29-153" transform="translate(396.375,-256.875)">
			<title>Terminal.29</title>
			<g id="shape30-154" transform="translate(-391.186,414.75) rotate(-90)">
				<title>Sheet.30</title>
				<path d="M0 414.75 L27 414.75 L27 409.08 L0 409.08 L0 414.75 ZM26.25 403.93 L23.44 399.37 L3.53 399.37 L0.75 403.93
							 L26.25 403.93 ZM23.44 399.37 L23.44 391.19 L3.53 391.19 L3.53 399.37 L23.44 399.37 ZM26.25 407.7 L26.25
							 403.93 L0.75 403.93 L0.75 407.7 L26.25 407.7 ZM24.83 407.7 A1223.48 394.162 90 0 1 2.17 407.7 L24.83
							 407.7 Z" class="st8"/>
			</g>
			<g id="shape31-156" transform="translate(-395.768,392.25) rotate(-90)">
				<title>Sheet.31</title>
				<rect x="0" y="414.641" width="0.75" height="0.109091" class="st9"/>
			</g>
			<g id="shape32-158" transform="translate(-391.623,414.188) rotate(-90)">
				<title>Sheet.32</title>
				<path d="M1.69 410.93 L2.63 410.93 L2.63 410.39 L1.69 410.39 L1.69 410.93 ZM2.81 410.93 L3.75 410.93 L3.75 410.39
							 L2.81 410.39 L2.81 410.93 ZM3.94 410.93 L4.87 410.93 L4.87 410.39 L3.94 410.39 L3.94 410.93 ZM5.06 410.93
							 L6 410.93 L6 410.39 L5.06 410.39 L5.06 410.93 ZM12.28 410.93 L13.22 410.93 L13.22 410.39 L12.28 410.39
							 L12.28 410.93 ZM13.41 410.93 L14.34 410.93 L14.34 410.39 L13.41 410.39 L13.41 410.93 ZM14.53 410.93
							 L15.47 410.93 L15.47 410.39 L14.53 410.39 L14.53 410.93 ZM15.66 410.93 L16.59 410.93 L16.59 410.39 L15.66
							 410.39 L15.66 410.93 ZM0 412.02 L1.5 412.02 L1.5 411.48 L0 411.48 L0 412.02 ZM1.69 412.02 L2.63 412.02
							 L2.63 411.48 L1.69 411.48 L1.69 412.02 ZM2.81 412.02 L3.75 412.02 L3.75 411.48 L2.81 411.48 L2.81 412.02
							 ZM3.94 412.02 L4.87 412.02 L4.87 411.48 L3.94 411.48 L3.94 412.02 ZM5.06 412.02 L6 412.02 L6 411.48
							 L5.06 411.48 L5.06 412.02 ZM6.19 412.02 L7.12 412.02 L7.12 411.48 L6.19 411.48 L6.19 412.02 ZM7.31 412.02
							 L8.25 412.02 L8.25 411.48 L7.31 411.48 L7.31 412.02 ZM8.44 412.02 L9.37 412.02 L9.37 411.48 L8.44 411.48
							 L8.44 412.02 ZM9.56 412.02 L10.5 412.02 L10.5 411.48 L9.56 411.48 L9.56 412.02 ZM10.69 412.02 L11.62
							 412.02 L11.62 411.48 L10.69 411.48 L10.69 412.02 ZM11.81 412.02 L12.75 412.02 L12.75 411.48 L11.81 411.48
							 L11.81 412.02 ZM12.94 412.02 L13.87 412.02 L13.87 411.48 L12.94 411.48 L12.94 412.02 ZM14.06 412.02
							 L15 412.02 L15 411.48 L14.06 411.48 L14.06 412.02 ZM1.69 412.7 L2.63 412.7 L2.63 412.16 L1.69 412.16
							 L1.69 412.7 ZM2.81 412.7 L3.75 412.7 L3.75 412.16 L2.81 412.16 L2.81 412.7 ZM3.94 412.7 L4.87 412.7
							 L4.87 412.16 L3.94 412.16 L3.94 412.7 ZM5.06 412.7 L6 412.7 L6 412.16 L5.06 412.16 L5.06 412.7 ZM6.19
							 412.7 L7.12 412.7 L7.12 412.16 L6.19 412.16 L6.19 412.7 ZM7.31 412.7 L8.25 412.7 L8.25 412.16 L7.31
							 412.16 L7.31 412.7 ZM8.44 412.7 L9.37 412.7 L9.37 412.16 L8.44 412.16 L8.44 412.7 ZM9.56 412.7 L10.5
							 412.7 L10.5 412.16 L9.56 412.16 L9.56 412.7 ZM10.69 412.7 L11.62 412.7 L11.62 412.16 L10.69 412.16 L10.69
							 412.7 ZM11.81 412.7 L12.75 412.7 L12.75 412.16 L11.81 412.16 L11.81 412.7 ZM12.94 412.7 L13.87 412.7
							 L13.87 412.16 L12.94 412.16 L12.94 412.7 ZM14.06 412.7 L15 412.7 L15 412.16 L14.06 412.16 L14.06 412.7
							 ZM1.69 413.39 L2.63 413.39 L2.63 412.84 L1.69 412.84 L1.69 413.39 ZM2.81 413.39 L3.75 413.39 L3.75 412.84
							 L2.81 412.84 L2.81 413.39 ZM3.94 413.39 L4.87 413.39 L4.87 412.84 L3.94 412.84 L3.94 413.39 ZM5.06 413.39
							 L6 413.39 L6 412.84 L5.06 412.84 L5.06 413.39 ZM6.19 413.39 L7.12 413.39 L7.12 412.84 L6.19 412.84 L6.19
							 413.39 ZM7.31 413.39 L8.25 413.39 L8.25 412.84 L7.31 412.84 L7.31 413.39 ZM8.44 413.39 L9.37 413.39
							 L9.37 412.84 L8.44 412.84 L8.44 413.39 ZM9.56 413.39 L10.5 413.39 L10.5 412.84 L9.56 412.84 L9.56 413.39
							 ZM10.69 413.39 L11.62 413.39 L11.62 412.84 L10.69 412.84 L10.69 413.39 ZM11.81 413.39 L12.75 413.39
							 L12.75 412.84 L11.81 412.84 L11.81 413.39 ZM12.94 413.39 L13.87 413.39 L13.87 412.84 L12.94 412.84 L12.94
							 413.39 ZM14.06 413.39 L15 413.39 L15 412.84 L14.06 412.84 L14.06 413.39 ZM1.69 414.07 L2.63 414.07 L2.63
							 413.52 L1.69 413.52 L1.69 414.07 ZM2.81 414.07 L3.75 414.07 L3.75 413.52 L2.81 413.52 L2.81 414.07 ZM3.94
							 414.07 L4.87 414.07 L4.87 413.52 L3.94 413.52 L3.94 414.07 ZM5.06 414.07 L6 414.07 L6 413.52 L5.06 413.52
							 L5.06 414.07 ZM6.19 414.07 L7.12 414.07 L7.12 413.52 L6.19 413.52 L6.19 414.07 ZM7.31 414.07 L8.25 414.07
							 L8.25 413.52 L7.31 413.52 L7.31 414.07 ZM8.44 414.07 L9.37 414.07 L9.37 413.52 L8.44 413.52 L8.44 414.07
							 ZM9.56 414.07 L10.5 414.07 L10.5 413.52 L9.56 413.52 L9.56 414.07 ZM10.69 414.07 L11.62 414.07 L11.62
							 413.52 L10.69 413.52 L10.69 414.07 ZM11.81 414.07 L12.75 414.07 L12.75 413.52 L11.81 413.52 L11.81 414.07
							 ZM12.94 414.07 L13.87 414.07 L13.87 413.52 L12.94 413.52 L12.94 414.07 ZM3.94 414.75 L11.62 414.75 L11.62
							 414.2 L3.94 414.2 L3.94 414.75 ZM21 414.75 L23.25 414.75 L23.25 414.2 L21 414.2 L21 414.75 ZM23.44 414.75
							 L24.37 414.75 L24.37 414.2 L23.44 414.2 L23.44 414.75 ZM23.44 414.07 L24.37 414.07 L24.37 413.52 L23.44
							 413.52 L23.44 414.07 ZM22.22 414.07 L23.16 414.07 L23.16 413.52 L22.22 413.52 L22.22 414.07 ZM21 414.07
							 L21.94 414.07 L21.94 413.52 L21 413.52 L21 414.07 ZM21 413.39 L21.94 413.39 L21.94 412.84 L21 412.84
							 L21 413.39 ZM21 412.7 L21.94 412.7 L21.94 412.16 L21 412.16 L21 412.7 ZM22.22 412.7 L23.16 412.7 L23.16
							 412.16 L22.22 412.16 L22.22 412.7 ZM23.44 412.7 L24.37 412.7 L24.37 412.16 L23.44 412.16 L23.44 412.7
							 ZM23.44 413.39 L24.37 413.39 L24.37 412.84 L23.44 412.84 L23.44 413.39 ZM22.22 413.39 L23.16 413.39
							 L23.16 412.84 L22.22 412.84 L22.22 413.39 Z" class="st10"/>
			</g>
			<g id="shape33-160" transform="translate(-391.623,414.188) rotate(-90)">
				<title>Sheet.33</title>
				<path d="M0 410.93 L0.94 410.93 L0.94 410.39 L0 410.39 L0 410.93 ZM0 412.7 L1.5 412.7 L1.5 412.16 L0 412.16 L0 412.7
							 ZM0 413.39 L1.5 413.39 L1.5 412.84 L0 412.84 L0 413.39 ZM0 414.07 L1.5 414.07 L1.5 413.52 L0 413.52
							 L0 414.07 ZM0 414.75 L1.5 414.75 L1.5 414.2 L0 414.2 L0 414.75 ZM1.69 414.75 L2.63 414.75 L2.63 414.2
							 L1.69 414.2 L1.69 414.75 ZM2.81 414.75 L3.75 414.75 L3.75 414.2 L2.81 414.2 L2.81 414.75 ZM11.81 414.75
							 L12.75 414.75 L12.75 414.2 L11.81 414.2 L11.81 414.75 ZM12.94 414.75 L13.87 414.75 L13.87 414.2 L12.94
							 414.2 L12.94 414.75 ZM14.06 414.75 L15 414.75 L15 414.2 L14.06 414.2 L14.06 414.75 ZM15.19 414.75 L16.69
							 414.75 L16.69 414.2 L15.19 414.2 L15.19 414.75 ZM17.25 414.75 L18.19 414.75 L18.19 414.2 L17.25 414.2
							 L17.25 414.75 ZM18.37 414.75 L19.31 414.75 L19.31 414.2 L18.37 414.2 L18.37 414.75 ZM19.5 414.75 L20.44
							 414.75 L20.44 414.2 L19.5 414.2 L19.5 414.75 ZM24.66 414.75 L25.59 414.75 L25.59 413.55 L24.66 413.55
							 L24.66 414.75 ZM24.66 413.44 L25.59 413.44 L25.59 412.16 L24.66 412.16 L24.66 413.44 ZM24.66 412.02
							 L25.59 412.02 L25.59 411.48 L24.66 411.48 L24.66 412.02 ZM23.44 412.02 L24.37 412.02 L24.37 411.48 L23.44
							 411.48 L23.44 412.02 ZM22.22 412.02 L23.16 412.02 L23.16 411.48 L22.22 411.48 L22.22 412.02 ZM21 412.02
							 L21.94 412.02 L21.94 411.48 L21 411.48 L21 412.02 ZM19.5 412.02 L20.44 412.02 L20.44 411.48 L19.5 411.48
							 L19.5 412.02 ZM19.5 412.7 L20.44 412.7 L20.44 412.16 L19.5 412.16 L19.5 412.7 ZM18.37 414.07 L19.31
							 414.07 L19.31 413.52 L18.37 413.52 L18.37 414.07 ZM14.06 414.06 L16.69 414.06 L16.69 413.51 L14.06 413.51
							 L14.06 414.06 ZM15.19 413.37 L16.69 413.37 L16.69 412.17 L15.19 412.17 L15.19 413.37 ZM17.25 412.7 L18.19
							 412.7 L18.19 412.16 L17.25 412.16 L17.25 412.7 ZM18.37 412.7 L19.31 412.7 L19.31 412.16 L18.37 412.16
							 L18.37 412.7 ZM18.37 412.02 L19.31 412.02 L19.31 411.48 L18.37 411.48 L18.37 412.02 ZM15.19 412.02 L16.69
							 412.02 L16.69 411.48 L15.19 411.48 L15.19 412.02 ZM24.19 410.6 L24.94 410.6 L24.94 410.5 L24.19 410.5
							 L24.19 410.6 ZM23.06 410.6 L23.81 410.6 L23.81 410.5 L23.06 410.5 L23.06 410.6 ZM19.5 410.93 L20.44
							 410.93 L20.44 410.39 L19.5 410.39 L19.5 410.93 ZM18.37 410.93 L19.31 410.93 L19.31 410.39 L18.37 410.39
							 L18.37 410.93 ZM17.25 410.93 L18.19 410.93 L18.19 410.39 L17.25 410.39 L17.25 410.93 ZM10.31 410.93
							 L11.25 410.93 L11.25 410.39 L10.31 410.39 L10.31 410.93 ZM9.19 410.93 L10.12 410.93 L10.12 410.39 L9.19
							 410.39 L9.19 410.93 ZM8.06 410.93 L9 410.93 L9 410.39 L8.06 410.39 L8.06 410.93 ZM6.94 410.93 L7.87
							 410.93 L7.87 410.39 L6.94 410.39 L6.94 410.93 ZM17.25 412.02 L18.19 412.02 L18.19 411.48 L17.25 411.48
							 L17.25 412.02 Z" class="st11"/>
			</g>
		</g>
		<g id="shape35-162" transform="translate(359.23,-270.375)">
			<title>Sheet.35</title>
			<path d="M0 414.75 L27.34 414.75" class="st4"/>
		</g>
		<g id="shape55-167" transform="translate(360.375,-324.375)">
			<title>Sheet.55</title>
			<desc>RS-232</desc>
			<rect x="0" y="405.75" width="27" height="9" class="st12"/>
			<text x="4.91" y="412.05" class="st14">RS-232</text>		</g>
		<g id="shape63-170" transform="translate(359.311,-270.375)">
			<title>Sheet.63</title>
			<desc>RS-232</desc>
			<rect x="0" y="405.75" width="27" height="9" class="st12"/>
			<text x="4.91" y="412.05" class="st14">RS-232</text>		</g>
		<g id="shape64-173" transform="translate(360.375,-108.375)">
			<title>Sheet.64</title>
			<desc>VGA</desc>
			<rect x="0" y="405.75" width="27" height="9" class="st12"/>
			<text x="8" y="412.05" class="st14">VGA</text>		</g>
		<g id="shape65-176" transform="translate(360.375,-72.375)">
			<title>Sheet.65</title>
			<desc>VGA</desc>
			<rect x="0" y="405.75" width="27" height="9" class="st12"/>
			<text x="8" y="412.05" class="st14">VGA</text>		</g>
		<g id="shape66-179" transform="translate(360.375,-36.375)">
			<title>Sheet.66</title>
			<desc>NTSC</desc>
			<rect x="0" y="405.75" width="27" height="9" class="st12"/>
			<text x="7.03" y="412.05" class="st14">NTSC</text>		</g>
		<g id="shape67-182" transform="translate(108.375,-297.375)">
			<title>Sheet.67</title>
			<desc>UART</desc>
			<rect x="0" y="396.75" width="54" height="18" class="st1"/>
			<text x="15.42" y="408.75" class="st2">UART</text>		</g>
		<g id="shape68-185" transform="translate(108.375,-279.375)">
			<title>Sheet.68</title>
			<desc>ASCI</desc>
			<rect x="0" y="396.75" width="54" height="18" class="st1"/>
			<text x="17.63" y="408.75" class="st2">ASCI</text>		</g>
		<g id="shape69-188" transform="translate(108.375,-261.375)">
			<title>Sheet.69</title>
			<desc>VDU</desc>
			<rect x="0" y="396.75" width="54" height="18" class="st1"/>
			<text x="17.63" y="408.75" class="st2">VDU</text>		</g>
		<g id="shape74-191" transform="translate(189.375,-81.375)">
			<title>Sheet.74</title>
			<desc>SY6545</desc>
			<rect x="0" y="396.75" width="54" height="18" class="st1"/>
			<text x="11.9" y="408.75" class="st2">SY6545</text>		</g>
		<g id="shape75-194" transform="translate(189.375,-63.375)">
			<title>Sheet.75</title>
			<desc>MC8563</desc>
			<rect x="0" y="396.75" width="54" height="18" class="st1"/>
			<text x="9.85" y="408.75" class="st2">MC8563</text>		</g>
		<g id="shape76-197" transform="translate(189.375,-45.375)">
			<title>Sheet.76</title>
			<desc>uPD7220</desc>
			<rect x="0" y="396.75" width="54" height="18" class="st1"/>
			<text x="8.37" y="408.75" class="st2">uPD7220</text>		</g>
		<g id="shape79-200" transform="translate(0.375,-396.375)">
			<title>Sheet.79</title>
			<desc>Character / Emulation / Video Services</desc>
			<rect x="0" y="396.75" width="432" height="18" class="st1"/>
			<text x="103.64" y="409.95" class="st15">Character / Emulation / Video Services</text>		</g>
		<g id="shape82-203" transform="translate(54.375,-360.375)">
			<title>Sheet.82</title>
			<desc>HBIOS</desc>
			<rect x="0" y="396.75" width="225" height="18" class="st12"/>
			<text x="99.47" y="408.75" class="st2">HBIOS</text>		</g>
		<g id="shape83-206" transform="translate(297.375,-360.375)">
			<title>Sheet.83</title>
			<desc>HARDWARE</desc>
			<rect x="0" y="396.75" width="135" height="18" class="st12"/>
			<text x="42.53" y="408.75" class="st2">HARDWARE</text>		</g>
		<g id="shape84-209" transform="translate(189.375,-27.375)">
			<title>Sheet.84</title>
			<desc>TMS9918</desc>
			<rect x="0" y="396.75" width="54" height="18" class="st1"/>
			<text x="7.65" y="408.75" class="st2">TMS9918</text>		</g>
		<g id="group87-212" transform="translate(395.311,-130.875)">
			<title>Terminal.87</title>
			<g id="shape88-213" transform="translate(-391.186,414.75) rotate(-90)">
				<title>Sheet.88</title>
				<path d="M0 414.75 L27 414.75 L27 409.08 L0 409.08 L0 414.75 ZM26.25 403.93 L23.44 399.37 L3.53 399.37 L0.75 403.93
							 L26.25 403.93 ZM23.44 399.37 L23.44 391.19 L3.53 391.19 L3.53 399.37 L23.44 399.37 ZM26.25 407.7 L26.25
							 403.93 L0.75 403.93 L0.75 407.7 L26.25 407.7 ZM24.83 407.7 A1223.48 394.162 90 0 1 2.17 407.7 L24.83
							 407.7 Z" class="st8"/>
			</g>
			<g id="shape89-215" transform="translate(-395.768,392.25) rotate(-90)">
				<title>Sheet.89</title>
				<rect x="0" y="414.641" width="0.75" height="0.109091" class="st9"/>
			</g>
			<g id="shape90-217" transform="translate(-391.623,414.188) rotate(-90)">
				<title>Sheet.90</title>
				<path d="M1.69 410.93 L2.63 410.93 L2.63 410.39 L1.69 410.39 L1.69 410.93 ZM2.81 410.93 L3.75 410.93 L3.75 410.39
							 L2.81 410.39 L2.81 410.93 ZM3.94 410.93 L4.87 410.93 L4.87 410.39 L3.94 410.39 L3.94 410.93 ZM5.06 410.93
							 L6 410.93 L6 410.39 L5.06 410.39 L5.06 410.93 ZM12.28 410.93 L13.22 410.93 L13.22 410.39 L12.28 410.39
							 L12.28 410.93 ZM13.41 410.93 L14.34 410.93 L14.34 410.39 L13.41 410.39 L13.41 410.93 ZM14.53 410.93
							 L15.47 410.93 L15.47 410.39 L14.53 410.39 L14.53 410.93 ZM15.66 410.93 L16.59 410.93 L16.59 410.39 L15.66
							 410.39 L15.66 410.93 ZM0 412.02 L1.5 412.02 L1.5 411.48 L0 411.48 L0 412.02 ZM1.69 412.02 L2.63 412.02
							 L2.63 411.48 L1.69 411.48 L1.69 412.02 ZM2.81 412.02 L3.75 412.02 L3.75 411.48 L2.81 411.48 L2.81 412.02
							 ZM3.94 412.02 L4.87 412.02 L4.87 411.48 L3.94 411.48 L3.94 412.02 ZM5.06 412.02 L6 412.02 L6 411.48
							 L5.06 411.48 L5.06 412.02 ZM6.19 412.02 L7.12 412.02 L7.12 411.48 L6.19 411.48 L6.19 412.02 ZM7.31 412.02
							 L8.25 412.02 L8.25 411.48 L7.31 411.48 L7.31 412.02 ZM8.44 412.02 L9.37 412.02 L9.37 411.48 L8.44 411.48
							 L8.44 412.02 ZM9.56 412.02 L10.5 412.02 L10.5 411.48 L9.56 411.48 L9.56 412.02 ZM10.69 412.02 L11.62
							 412.02 L11.62 411.48 L10.69 411.48 L10.69 412.02 ZM11.81 412.02 L12.75 412.02 L12.75 411.48 L11.81 411.48
							 L11.81 412.02 ZM12.94 412.02 L13.87 412.02 L13.87 411.48 L12.94 411.48 L12.94 412.02 ZM14.06 412.02
							 L15 412.02 L15 411.48 L14.06 411.48 L14.06 412.02 ZM1.69 412.7 L2.63 412.7 L2.63 412.16 L1.69 412.16
							 L1.69 412.7 ZM2.81 412.7 L3.75 412.7 L3.75 412.16 L2.81 412.16 L2.81 412.7 ZM3.94 412.7 L4.87 412.7
							 L4.87 412.16 L3.94 412.16 L3.94 412.7 ZM5.06 412.7 L6 412.7 L6 412.16 L5.06 412.16 L5.06 412.7 ZM6.19
							 412.7 L7.12 412.7 L7.12 412.16 L6.19 412.16 L6.19 412.7 ZM7.31 412.7 L8.25 412.7 L8.25 412.16 L7.31
							 412.16 L7.31 412.7 ZM8.44 412.7 L9.37 412.7 L9.37 412.16 L8.44 412.16 L8.44 412.7 ZM9.56 412.7 L10.5
							 412.7 L10.5 412.16 L9.56 412.16 L9.56 412.7 ZM10.69 412.7 L11.62 412.7 L11.62 412.16 L10.69 412.16 L10.69
							 412.7 ZM11.81 412.7 L12.75 412.7 L12.75 412.16 L11.81 412.16 L11.81 412.7 ZM12.94 412.7 L13.87 412.7
							 L13.87 412.16 L12.94 412.16 L12.94 412.7 ZM14.06 412.7 L15 412.7 L15 412.16 L14.06 412.16 L14.06 412.7
							 ZM1.69 413.39 L2.63 413.39 L2.63 412.84 L1.69 412.84 L1.69 413.39 ZM2.81 413.39 L3.75 413.39 L3.75 412.84
							 L2.81 412.84 L2.81 413.39 ZM3.94 413.39 L4.87 413.39 L4.87 412.84 L3.94 412.84 L3.94 413.39 ZM5.06 413.39
							 L6 413.39 L6 412.84 L5.06 412.84 L5.06 413.39 ZM6.19 413.39 L7.12 413.39 L7.12 412.84 L6.19 412.84 L6.19
							 413.39 ZM7.31 413.39 L8.25 413.39 L8.25 412.84 L7.31 412.84 L7.31 413.39 ZM8.44 413.39 L9.37 413.39
							 L9.37 412.84 L8.44 412.84 L8.44 413.39 ZM9.56 413.39 L10.5 413.39 L10.5 412.84 L9.56 412.84 L9.56 413.39
							 ZM10.69 413.39 L11.62 413.39 L11.62 412.84 L10.69 412.84 L10.69 413.39 ZM11.81 413.39 L12.75 413.39
							 L12.75 412.84 L11.81 412.84 L11.81 413.39 ZM12.94 413.39 L13.87 413.39 L13.87 412.84 L12.94 412.84 L12.94
							 413.39 ZM14.06 413.39 L15 413.39 L15 412.84 L14.06 412.84 L14.06 413.39 ZM1.69 414.07 L2.63 414.07 L2.63
							 413.52 L1.69 413.52 L1.69 414.07 ZM2.81 414.07 L3.75 414.07 L3.75 413.52 L2.81 413.52 L2.81 414.07 ZM3.94
							 414.07 L4.87 414.07 L4.87 413.52 L3.94 413.52 L3.94 414.07 ZM5.06 414.07 L6 414.07 L6 413.52 L5.06 413.52
							 L5.06 414.07 ZM6.19 414.07 L7.12 414.07 L7.12 413.52 L6.19 413.52 L6.19 414.07 ZM7.31 414.07 L8.25 414.07
							 L8.25 413.52 L7.31 413.52 L7.31 414.07 ZM8.44 414.07 L9.37 414.07 L9.37 413.52 L8.44 413.52 L8.44 414.07
							 ZM9.56 414.07 L10.5 414.07 L10.5 413.52 L9.56 413.52 L9.56 414.07 ZM10.69 414.07 L11.62 414.07 L11.62
							 413.52 L10.69 413.52 L10.69 414.07 ZM11.81 414.07 L12.75 414.07 L12.75 413.52 L11.81 413.52 L11.81 414.07
							 ZM12.94 414.07 L13.87 414.07 L13.87 413.52 L12.94 413.52 L12.94 414.07 ZM3.94 414.75 L11.62 414.75 L11.62
							 414.2 L3.94 414.2 L3.94 414.75 ZM21 414.75 L23.25 414.75 L23.25 414.2 L21 414.2 L21 414.75 ZM23.44 414.75
							 L24.37 414.75 L24.37 414.2 L23.44 414.2 L23.44 414.75 ZM23.44 414.07 L24.37 414.07 L24.37 413.52 L23.44
							 413.52 L23.44 414.07 ZM22.22 414.07 L23.16 414.07 L23.16 413.52 L22.22 413.52 L22.22 414.07 ZM21 414.07
							 L21.94 414.07 L21.94 413.52 L21 413.52 L21 414.07 ZM21 413.39 L21.94 413.39 L21.94 412.84 L21 412.84
							 L21 413.39 ZM21 412.7 L21.94 412.7 L21.94 412.16 L21 412.16 L21 412.7 ZM22.22 412.7 L23.16 412.7 L23.16
							 412.16 L22.22 412.16 L22.22 412.7 ZM23.44 412.7 L24.37 412.7 L24.37 412.16 L23.44 412.16 L23.44 412.7
							 ZM23.44 413.39 L24.37 413.39 L24.37 412.84 L23.44 412.84 L23.44 413.39 ZM22.22 413.39 L23.16 413.39
							 L23.16 412.84 L22.22 412.84 L22.22 413.39 Z" class="st10"/>
			</g>
			<g id="shape91-219" transform="translate(-391.623,414.188) rotate(-90)">
				<title>Sheet.91</title>
				<path d="M0 410.93 L0.94 410.93 L0.94 410.39 L0 410.39 L0 410.93 ZM0 412.7 L1.5 412.7 L1.5 412.16 L0 412.16 L0 412.7
							 ZM0 413.39 L1.5 413.39 L1.5 412.84 L0 412.84 L0 413.39 ZM0 414.07 L1.5 414.07 L1.5 413.52 L0 413.52
							 L0 414.07 ZM0 414.75 L1.5 414.75 L1.5 414.2 L0 414.2 L0 414.75 ZM1.69 414.75 L2.63 414.75 L2.63 414.2
							 L1.69 414.2 L1.69 414.75 ZM2.81 414.75 L3.75 414.75 L3.75 414.2 L2.81 414.2 L2.81 414.75 ZM11.81 414.75
							 L12.75 414.75 L12.75 414.2 L11.81 414.2 L11.81 414.75 ZM12.94 414.75 L13.87 414.75 L13.87 414.2 L12.94
							 414.2 L12.94 414.75 ZM14.06 414.75 L15 414.75 L15 414.2 L14.06 414.2 L14.06 414.75 ZM15.19 414.75 L16.69
							 414.75 L16.69 414.2 L15.19 414.2 L15.19 414.75 ZM17.25 414.75 L18.19 414.75 L18.19 414.2 L17.25 414.2
							 L17.25 414.75 ZM18.37 414.75 L19.31 414.75 L19.31 414.2 L18.37 414.2 L18.37 414.75 ZM19.5 414.75 L20.44
							 414.75 L20.44 414.2 L19.5 414.2 L19.5 414.75 ZM24.66 414.75 L25.59 414.75 L25.59 413.55 L24.66 413.55
							 L24.66 414.75 ZM24.66 413.44 L25.59 413.44 L25.59 412.16 L24.66 412.16 L24.66 413.44 ZM24.66 412.02
							 L25.59 412.02 L25.59 411.48 L24.66 411.48 L24.66 412.02 ZM23.44 412.02 L24.37 412.02 L24.37 411.48 L23.44
							 411.48 L23.44 412.02 ZM22.22 412.02 L23.16 412.02 L23.16 411.48 L22.22 411.48 L22.22 412.02 ZM21 412.02
							 L21.94 412.02 L21.94 411.48 L21 411.48 L21 412.02 ZM19.5 412.02 L20.44 412.02 L20.44 411.48 L19.5 411.48
							 L19.5 412.02 ZM19.5 412.7 L20.44 412.7 L20.44 412.16 L19.5 412.16 L19.5 412.7 ZM18.37 414.07 L19.31
							 414.07 L19.31 413.52 L18.37 413.52 L18.37 414.07 ZM14.06 414.06 L16.69 414.06 L16.69 413.51 L14.06 413.51
							 L14.06 414.06 ZM15.19 413.37 L16.69 413.37 L16.69 412.17 L15.19 412.17 L15.19 413.37 ZM17.25 412.7 L18.19
							 412.7 L18.19 412.16 L17.25 412.16 L17.25 412.7 ZM18.37 412.7 L19.31 412.7 L19.31 412.16 L18.37 412.16
							 L18.37 412.7 ZM18.37 412.02 L19.31 412.02 L19.31 411.48 L18.37 411.48 L18.37 412.02 ZM15.19 412.02 L16.69
							 412.02 L16.69 411.48 L15.19 411.48 L15.19 412.02 ZM24.19 410.6 L24.94 410.6 L24.94 410.5 L24.19 410.5
							 L24.19 410.6 ZM23.06 410.6 L23.81 410.6 L23.81 410.5 L23.06 410.5 L23.06 410.6 ZM19.5 410.93 L20.44
							 410.93 L20.44 410.39 L19.5 410.39 L19.5 410.93 ZM18.37 410.93 L19.31 410.93 L19.31 410.39 L18.37 410.39
							 L18.37 410.93 ZM17.25 410.93 L18.19 410.93 L18.19 410.39 L17.25 410.39 L17.25 410.93 ZM10.31 410.93
							 L11.25 410.93 L11.25 410.39 L10.31 410.39 L10.31 410.93 ZM9.19 410.93 L10.12 410.93 L10.12 410.39 L9.19
							 410.39 L9.19 410.93 ZM8.06 410.93 L9 410.93 L9 410.39 L8.06 410.39 L8.06 410.93 ZM6.94 410.93 L7.87
							 410.93 L7.87 410.39 L6.94 410.39 L6.94 410.93 ZM17.25 412.02 L18.19 412.02 L18.19 411.48 L17.25 411.48
							 L17.25 412.02 Z" class="st11"/>
			</g>
		</g>
		<g id="shape92-221" transform="translate(314.311,-135.375)">
			<title>Sheet.92</title>
			<desc>VDU</desc>
			<rect x="0" y="396.75" width="44.9182" height="18" class="st6"/>
			<text x="14.96" y="408.15" class="st7">VDU</text>		</g>
		<g id="shape93-224" transform="translate(359.23,-144.375)">
			<title>Sheet.93</title>
			<path d="M0 414.75 L26.27 414.75" class="st4"/>
		</g>
		<g id="shape94-229" transform="translate(359.311,-144.375)">
			<title>Sheet.94</title>
			<desc>NTSC</desc>
			<rect x="0" y="405.75" width="27" height="9" class="st12"/>
			<text x="7.03" y="412.05" class="st14">NTSC</text>		</g>
		<g id="shape96-232" transform="translate(243.375,-90.375)">
			<title>Sheet.96</title>
			<path d="M0 414.75 L4.05 414.75 A4.05 4.05 -180 0 0 8.1 410.7 L8.1 365.25 A4.5 4.5 0 0 1 12.6 360.75 L61.13 360.75"
					class="st4"/>
		</g>
		<g id="shape7-237" transform="translate(243.375,-72.375)">
			<title>Sheet.7</title>
			<path d="M0 414.75 L13.5 414.75 A4.5 4.5 -180 0 0 18 410.25 L18 383.25 A4.5 4.5 0 0 1 22.5 378.75 L62.19 378.75"
					class="st4"/>
		</g>
		<g id="shape17-242" transform="translate(243.375,-54.375)">
			<title>Sheet.17</title>
			<path d="M0 414.75 L22.5 414.75 A4.5 4.5 -180 0 0 27 410.25 L27 401.25 A4.5 4.5 0 0 1 31.5 396.75 L62.19 396.75"
					class="st4"/>
		</g>
		<g id="shape3-247" transform="translate(162.375,-306.375)">
			<title>Sheet.3</title>
			<path d="M0 414.75 L31.5 414.75 A4.5 4.5 -180 0 0 36 410.25 L36 401.25 A4.5 4.5 0 0 1 40.5 396.75 L143.19 396.75"
					class="st4"/>
		</g>
		<g id="shape4-252" transform="translate(162.375,-270.375)">
			<title>Sheet.4</title>
			<path d="M0 396.75 L31.5 396.75 A4.5 4.5 0 0 1 36 401.25 L36 410.25 A4.5 4.5 -180 0 0 40.5 414.75 L142.13 414.75"
					class="st4"/>
		</g>
	</g>
</svg>
