<?xml version="1.0" encoding="UTF-8" standalone="no"?>
<!-- Generated by Microsoft Visio, SVG Export hd1k.svg Page-1 -->

<svg
   width="6.5138898in"
   height="3.9069397in"
   viewBox="0 0 469 281.29998"
   xml:space="preserve"
   color-interpolation-filters="sRGB"
   class="st17"
   version="1.1"
   id="svg50"
   xmlns:xlink="http://www.w3.org/1999/xlink"
   xmlns="http://www.w3.org/2000/svg"
   xmlns:svg="http://www.w3.org/2000/svg"
   xmlns:v="http://schemas.microsoft.com/visio/2003/SVGExtensions/">
	<v:documentProperties
   v:langID="1033"
   v:viewMarkup="false">
		<v:userDefs>
			<v:ud
   v:nameU="msvConvertTheme" />
		</v:userDefs>
	</v:documentProperties>

	<style
   type="text/css"
   id="style1">
	<![CDATA[
		.st1 {fill:#ffffff;stroke:#000000;stroke-linecap:round;stroke-linejoin:round;stroke-width:0.24}
		.st2 {fill:#000000;font-family:Calibri;font-size:0.666664em}
		.st3 {fill:none;stroke:#000000;stroke-linecap:round;stroke-linejoin:round;stroke-width:1}
		.st4 {fill:#ffffff;stroke:#000000;stroke-linecap:round;stroke-linejoin:round;stroke-width:1}
		.st5 {fill:#000000;font-family:Calibri;font-size:1.5em}
		.st6 {fill:#d8d8d8;stroke:#000000;stroke-linecap:round;stroke-linejoin:round;stroke-width:1}
		.st7 {fill:none;stroke:none;stroke-linecap:round;stroke-linejoin:round;stroke-width:0.75}
		.st8 {marker-start:url(#mrkr4-40);stroke:#000000;stroke-linecap:round;stroke-linejoin:round;stroke-width:0.24}
		.st9 {fill:#000000;fill-opacity:1;stroke:#000000;stroke-opacity:1;stroke-width:0.08695652173913}
		.st10 {fill:#000000;font-family:Calibri;font-size:0.499992em}
		.st11 {marker-end:url(#mrkr4-59);stroke:#000000;stroke-linecap:round;stroke-linejoin:round;stroke-width:0.24}
		.st12 {stroke:#000000;stroke-linecap:round;stroke-linejoin:round;stroke-width:0.25}
		.st13 {marker-end:url(#mrkr9-70);marker-start:url(#mrkr4-40);stroke:#000000;stroke-linecap:round;stroke-linejoin:round;stroke-width:0.24}
		.st14 {marker-end:url(#mrkr4-118);stroke:#000000;stroke-dasharray:1.75,1.25;stroke-linecap:round;stroke-linejoin:round;stroke-width:0.25}
		.st15 {fill:#000000;fill-opacity:1;stroke:#000000;stroke-opacity:1;stroke-width:0.090252707581227}
		.st16 {marker-start:url(#mrkr9-147);stroke:#000000;stroke-linecap:round;stroke-linejoin:round;stroke-width:0.24}
		.st17 {fill:none;fill-rule:evenodd;font-size:12px;overflow:visible;stroke-linecap:square;stroke-miterlimit:3}
	]]>
	</style>

	<defs
   id="Markers"><g
     id="lend4">
			<path
   d="M 2,1 0,0 2,-1 v 2"
   style="stroke:none"
   id="path1" />
		</g><marker
     id="mrkr4-40"
     class="st9"
     v:arrowType="4"
     v:arrowSize="2"
     v:setback="21.5"
     refX="21.5"
     orient="auto"
     markerUnits="strokeWidth"
     overflow="visible">
			<use
   xlink:href="#lend4"
   transform="scale(11.5)"
   id="use1" />
		</marker><marker
     id="mrkr4-59"
     class="st9"
     v:arrowType="4"
     v:arrowSize="2"
     v:setback="23"
     refX="-23"
     orient="auto"
     markerUnits="strokeWidth"
     overflow="visible">
			<use
   xlink:href="#lend4"
   transform="scale(-11.5)"
   id="use2" />
		</marker><g
     id="lend9">
			<path
   d="M 1,-1 -1,1"
   style="fill:none;stroke-linecap:round;stroke-linejoin:round"
   id="path2" />
		</g><marker
     id="mrkr9-70"
     class="st9"
     v:arrowType="9"
     v:arrowSize="2"
     orient="auto"
     markerUnits="strokeWidth"
     overflow="visible">
			<use
   xlink:href="#lend9"
   transform="scale(-11.5)"
   id="use3" />
		</marker><marker
     id="mrkr4-118"
     class="st15"
     v:arrowType="4"
     v:arrowSize="2"
     v:setback="22.16"
     refX="-22.16"
     orient="auto"
     markerUnits="strokeWidth"
     overflow="visible">
			<use
   xlink:href="#lend4"
   transform="scale(-11.08)"
   id="use4" />
		</marker><marker
     id="mrkr9-147"
     class="st9"
     v:arrowType="9"
     v:arrowSize="2"
     orient="auto"
     markerUnits="strokeWidth"
     overflow="visible">
			<use
   xlink:href="#lend9"
   transform="scale(11.5)"
   id="use5" />
		</marker></defs>
	<g
   v:mID="0"
   v:index="1"
   v:groupContext="foregroundPage"
   id="g50">
		<title
   id="title5">Page-1</title>
		<v:pageProperties
   v:drawingScale="1"
   v:pageScale="1"
   v:drawingUnits="0"
   v:shadowOffsetX="9"
   v:shadowOffsetY="-9" />
		<v:layer
   v:name="Connector"
   v:index="0" />
		<g
   id="shape95-1"
   v:mID="95"
   v:groupContext="shape"
   transform="translate(65.3,-151.2)">
			<title
   id="title6">Sheet.95</title>
			<desc
   id="desc6">0</desc>
			<v:textBlock
   v:margins="rect(1,1,1,1)" />
			<v:textRect
   cx="7.2"
   cy="274.1"
   width="14.41"
   height="14.4" />
			<rect
   x="0"
   y="266.89999"
   width="14.4"
   height="14.4"
   class="st1"
   id="rect6" />
			<text
   x="5.1700001"
   y="276.5"
   class="st2"
   v:langID="1033"
   id="text6"><v:paragraph
   v:horizAlign="1" /><v:tabList />0</text>		</g>
		<g
   id="shape101-4"
   v:mID="101"
   v:groupContext="shape"
   transform="translate(79.7,-151.2)">
			<title
   id="title7">Sheet.101</title>
			<desc
   id="desc7">1</desc>
			<v:textBlock
   v:margins="rect(1,1,1,1)" />
			<v:textRect
   cx="7.2"
   cy="274.1"
   width="14.41"
   height="14.4" />
			<rect
   x="0"
   y="266.89999"
   width="14.4"
   height="14.4"
   class="st1"
   id="rect7" />
			<text
   x="5.1700001"
   y="276.5"
   class="st2"
   v:langID="1033"
   id="text7"><v:paragraph
   v:horizAlign="1" /><v:tabList />1</text>		</g>
		<g
   id="shape102-7"
   v:mID="102"
   v:groupContext="shape"
   transform="translate(94.1,-151.2)">
			<title
   id="title8">Sheet.102</title>
			<desc
   id="desc8">2</desc>
			<v:textBlock
   v:margins="rect(1,1,1,1)" />
			<v:textRect
   cx="7.2"
   cy="274.1"
   width="14.41"
   height="14.4" />
			<rect
   x="0"
   y="266.89999"
   width="14.4"
   height="14.4"
   class="st1"
   id="rect8" />
			<text
   x="5.1700001"
   y="276.5"
   class="st2"
   v:langID="1033"
   id="text8"><v:paragraph
   v:horizAlign="1" /><v:tabList />2</text>		</g>
		<g
   id="shape103-10"
   v:mID="103"
   v:groupContext="shape"
   transform="translate(108.5,-151.2)">
			<title
   id="title9">Sheet.103</title>
			<desc
   id="desc9">3</desc>
			<v:textBlock
   v:margins="rect(1,1,1,1)" />
			<v:textRect
   cx="7.2"
   cy="274.1"
   width="14.41"
   height="14.4" />
			<rect
   x="0"
   y="266.89999"
   width="14.4"
   height="14.4"
   class="st1"
   id="rect9" />
			<text
   x="5.1700001"
   y="276.5"
   class="st2"
   v:langID="1033"
   id="text9"><v:paragraph
   v:horizAlign="1" /><v:tabList />3</text>		</g>
		<g
   id="shape105-13"
   v:mID="105"
   v:groupContext="shape"
   transform="translate(122.9,-151.2)">
			<title
   id="title10">Sheet.105</title>
			<desc
   id="desc10">. . .</desc>
			<v:textBlock
   v:margins="rect(1,1,1,1)" />
			<v:textRect
   cx="36"
   cy="274.1"
   width="72.01"
   height="14.4" />
			<rect
   x="0"
   y="266.89999"
   width="72"
   height="14.4"
   class="st1"
   id="rect10" />
			<text
   x="27.540001"
   y="276.5"
   class="st2"
   v:langID="1033"
   id="text10"><v:paragraph
   v:horizAlign="1" /><v:tabList />.   .   .</text>		</g>
		<g
   id="shape104-16"
   v:mID="104"
   v:groupContext="shape"
   transform="translate(194.9,-151.2)">
			<title
   id="title11">Sheet.104</title>
			<desc
   id="desc11">N</desc>
			<v:textBlock
   v:margins="rect(1,1,1,1)" />
			<v:textRect
   cx="7.2"
   cy="274.1"
   width="14.41"
   height="14.4" />
			<rect
   x="0"
   y="266.89999"
   width="14.4"
   height="14.4"
   class="st1"
   id="rect11" />
			<text
   x="4.6199999"
   y="276.5"
   class="st2"
   v:langID="1033"
   id="text11"><v:paragraph
   v:horizAlign="1" /><v:tabList />N</text>		</g>
		<g
   id="shape201-19"
   v:mID="201"
   v:groupContext="shape"
   transform="translate(65.3,-151.2)">
			<title
   id="title12">Sheet.201</title>
			<rect
   x="0"
   y="266.89999"
   width="144"
   height="14.4"
   class="st3"
   id="rect12" />
		</g>
		<g
   id="shape69-21"
   v:mID="69"
   v:groupContext="shape"
   transform="translate(0.5,-252)">
			<title
   id="title13">Sheet.69</title>
			<desc
   id="desc13">RomWBW Hard Disk Anatomy (Modern / hd1k)</desc>
			<v:textBlock
   v:margins="rect(1,1,1,1)" />
			<v:textRect
   cx="234"
   cy="266.9"
   width="468.01"
   height="28.8" />
			<rect
   x="0"
   y="252.5"
   width="468"
   height="28.799999"
   class="st4"
   id="rect13" />
			<text
   x="61.23"
   y="272.29999"
   class="st5"
   v:langID="1033"
   id="text13"><v:paragraph
   v:horizAlign="1" /><v:tabList />RomWBW Hard Disk Anatomy (Modern / hd1k)</text>		</g>
		<g
   id="shape106-24"
   v:mID="106"
   v:groupContext="shape"
   transform="translate(50.9,-122.4)">
			<title
   id="title14">Sheet.106</title>
			<desc
   id="desc14">RomWBW Hard Disk (IDE/ATA/ATAPI/CF/SD/USB)</desc>
			<v:textBlock
   v:margins="rect(1,1,1,1)" />
			<v:textRect
   cx="180"
   cy="274.1"
   width="360.01"
   height="14.4" />
			<rect
   x="0"
   y="266.89999"
   width="360"
   height="14.4"
   class="st6"
   id="rect14" />
			<text
   x="99.199997"
   y="276.5"
   class="st2"
   v:langID="1033"
   id="text14"><v:paragraph
   v:horizAlign="1" /><v:tabList />RomWBW Hard Disk (IDE/ATA/ATAPI/CF/SD/USB)</text>		</g>
		<g
   id="shape107-27"
   v:mID="107"
   v:groupContext="shape"
   transform="translate(230.9,-136.8)">
			<title
   id="title15">Sheet.107</title>
			<desc
   id="desc15">FAT Partition</desc>
			<v:textBlock
   v:margins="rect(1,1,1,1)" />
			<v:textRect
   cx="82.8"
   cy="274.1"
   width="165.6"
   height="14.4" />
			<rect
   x="0"
   y="266.89999"
   width="165.60001"
   height="14.4"
   class="st4"
   id="rect15" />
			<text
   x="61.689999"
   y="276.5"
   class="st2"
   v:langID="1033"
   id="text15"><v:paragraph
   v:horizAlign="1" /><v:tabList />FAT Partition</text>		</g>
		<g
   id="shape119-30"
   v:mID="119"
   v:groupContext="shape"
   transform="translate(101.3,-43.2)">
			<title
   id="title16">Sheet.119</title>
			<desc
   id="desc16">Sector 0</desc>
			<v:textBlock
   v:margins="rect(1,1,1,1)" />
			<v:textRect
   cx="36"
   cy="274.1"
   width="72.01"
   height="14.4" />
			<rect
   x="0"
   y="266.89999"
   width="72"
   height="14.4"
   class="st7"
   id="rect16" />
			<text
   x="22.709999"
   y="276.5"
   class="st2"
   v:langID="1033"
   id="text16"><v:paragraph
   v:horizAlign="1" /><v:tabList />Sector 0</text>		</g>
		<g
   id="shape120-33"
   v:mID="120"
   v:groupContext="shape"
   transform="translate(158.9,-57.6)">
			<title
   id="title17">Sheet.120</title>
			<rect
   x="0"
   y="266.89999"
   width="14.4"
   height="14.4"
   class="st1"
   id="rect17" />
		</g>
		<g
   id="shape121-35"
   v:mID="121"
   v:groupContext="shape"
   transform="translate(50.9,-64.8)">
			<title
   id="title18">Sheet.121</title>
			<path
   d="m 0,228.86 v 0.36 47.58 a 4.5,4.5 -180 0 0 4.5,4.5 h 41.58"
   class="st8"
   id="path18" />
		</g>
		<g
   id="shape122-41"
   v:mID="122"
   v:groupContext="shape"
   transform="translate(209.3,-43.2)">
			<title
   id="title19">Sheet.122</title>
			<desc
   id="desc19">Type 2E</desc>
			<v:textBlock
   v:margins="rect(1,1,1,1)" />
			<v:textRect
   cx="21.6"
   cy="277.7"
   width="43.21"
   height="7.2" />
			<rect
   x="0"
   y="274.10001"
   width="43.200001"
   height="7.1999998"
   class="st1"
   id="rect19" />
			<text
   x="12.05"
   y="279.5"
   class="st10"
   v:langID="1033"
   id="text19"><v:paragraph
   v:horizAlign="1" /><v:tabList />Type 2E</text>		</g>
		<g
   id="shape123-44"
   v:mID="123"
   v:groupContext="shape"
   transform="translate(209.3,-36)">
			<title
   id="title20">Sheet.123</title>
			<desc
   id="desc20">Type 06</desc>
			<v:textBlock
   v:margins="rect(1,1,1,1)" />
			<v:textRect
   cx="21.6"
   cy="277.7"
   width="43.21"
   height="7.2" />
			<rect
   x="0"
   y="274.10001"
   width="43.200001"
   height="7.1999998"
   class="st1"
   id="rect20" />
			<text
   x="11.99"
   y="279.5"
   class="st10"
   v:langID="1033"
   id="text20"><v:paragraph
   v:horizAlign="1" /><v:tabList />Type 06</text>		</g>
		<g
   id="shape124-47"
   v:mID="124"
   v:groupContext="shape"
   transform="translate(209.3,-28.8)">
			<title
   id="title21">Sheet.124</title>
			<rect
   x="0"
   y="274.10001"
   width="43.200001"
   height="7.1999998"
   class="st1"
   id="rect21" />
		</g>
		<g
   id="shape125-49"
   v:mID="125"
   v:groupContext="shape"
   transform="translate(209.3,-21.6)">
			<title
   id="title22">Sheet.125</title>
			<rect
   x="0"
   y="274.10001"
   width="43.200001"
   height="7.1999998"
   class="st1"
   id="rect22" />
		</g>
		<g
   id="shape126-51"
   v:mID="126"
   v:groupContext="shape"
   transform="translate(202.1,-7.19995)">
			<title
   id="title23">Sheet.126</title>
			<desc
   id="desc23">Partition Table</desc>
			<v:textBlock
   v:margins="rect(1,1,1,1)" />
			<v:textRect
   cx="28.8"
   cy="274.1"
   width="57.6"
   height="14.4" />
			<rect
   x="0"
   y="266.89999"
   width="57.599998"
   height="14.4"
   class="st7"
   id="rect23" />
			<text
   x="4.9200001"
   y="276.5"
   class="st2"
   v:langID="1033"
   id="text23"><v:paragraph
   v:horizAlign="1" /><v:tabList />Partition Table</text>		</g>
		<g
   id="shape131-54"
   v:mID="131"
   v:groupContext="shape"
   transform="rotate(90,144.25,209.55)">
			<title
   id="title24">Sheet.131</title>
			<path
   d="m 0,97.7 v 161.1 a 22.5,22.5 -180 0 0 22.5,22.5 h 22.38"
   class="st11"
   id="path24" />
		</g>
		<g
   id="shape132-60"
   v:mID="132"
   v:groupContext="shape"
   transform="rotate(-90,93.85,165.85)">
			<title
   id="title25">Bracket.132</title>
			<v:userDefs>
				<v:ud
   v:nameU="visVersion"
   v:val="VT0(14):26" />
			</v:userDefs>
			<path
   d="m 0,281.3 a 5.43323,5.43323 0 0 1 4.8,-4.8 h 4.8 a 5.43323,5.43323 -180 0 0 4.8,-4.8 5.43323,5.43323 -180 0 0 4.8,4.8 H 24 a 5.43323,5.43323 0 0 1 4.8,4.8"
   class="st12"
   id="path25" />
		</g>
		<g
   id="shape135-63"
   v:mID="135"
   v:groupContext="shape"
   transform="translate(266.9,-180)">
			<title
   id="title26">Sheet.135</title>
			<path
   d="m 0,272.06 v 0.36 1.68 a 7.19998,7.19998 -180 0 0 7.2,7.2 h 21.6"
   class="st13"
   id="path26" />
		</g>
		<g
   id="shape139-71"
   v:mID="139"
   v:groupContext="shape"
   transform="translate(299.3,-172.8)">
			<title
   id="title27">Sheet.139</title>
			<desc
   id="desc27">CP/M System Area (16 KB)</desc>
			<v:textBlock
   v:margins="rect(1,1,1,1)" />
			<v:textRect
   cx="55.8"
   cy="274.1"
   width="111.61"
   height="14.4" />
			<rect
   x="0"
   y="266.89999"
   width="111.6"
   height="14.4"
   class="st7"
   id="rect27" />
			<text
   x="1"
   y="276.5"
   class="st2"
   v:langID="1033"
   id="text27"><v:paragraph /><v:tabList />CP/M System Area (16 KB)</text>		</g>
		<g
   id="shape141-74"
   v:mID="141"
   v:groupContext="shape"
   transform="rotate(90,151.45,216.75)">
			<title
   id="title28">Sheet.141</title>
			<path
   d="m 0,112.1 v 146.7 a 22.5,22.5 -180 0 0 22.5,22.5 h 22.38"
   class="st11"
   id="path28" />
		</g>
		<g
   id="shape142-79"
   v:mID="142"
   v:groupContext="shape"
   transform="rotate(90,158.65,223.95)">
			<title
   id="title29">Sheet.142</title>
			<path
   d="m 0,126.5 v 132.3 a 22.5,22.5 -180 0 0 22.5,22.5 h 22.38"
   class="st11"
   id="path29" />
		</g>
		<g
   id="shape143-84"
   v:mID="143"
   v:groupContext="shape"
   transform="rotate(90,165.85,231.15)">
			<title
   id="title30">Sheet.143</title>
			<path
   d="m 0,140.9 v 117.9 a 22.5,22.5 -180 0 0 22.5,22.5 h 22.38"
   class="st11"
   id="path30" />
		</g>
		<g
   id="shape144-89"
   v:mID="144"
   v:groupContext="shape"
   transform="rotate(90,209.05,274.35)">
			<title
   id="title31">Sheet.144</title>
			<path
   d="m 0,227.3 v 31.5 a 22.5,22.5 -180 0 0 22.5,22.5 h 22.38"
   class="st11"
   id="path31" />
		</g>
		<g
   id="shape165-94"
   v:mID="165"
   v:groupContext="shape"
   transform="translate(158.9,-68.3999)">
			<title
   id="title32">Sheet.165</title>
			<rect
   x="0"
   y="277.70001"
   width="14.4"
   height="3.5999999"
   class="st1"
   id="rect32" />
		</g>
		<g
   id="shape166-96"
   v:mID="166"
   v:groupContext="shape"
   transform="translate(158.9,-64.7999)">
			<title
   id="title33">Sheet.166</title>
			<rect
   x="0"
   y="277.70001"
   width="14.4"
   height="3.5999999"
   class="st1"
   id="rect33" />
		</g>
		<g
   id="shape167-98"
   v:mID="167"
   v:groupContext="shape"
   transform="translate(158.9,-61.1999)">
			<title
   id="title34">Sheet.167</title>
			<rect
   x="0"
   y="277.70001"
   width="14.4"
   height="3.5999999"
   class="st1"
   id="rect34" />
		</g>
		<g
   id="shape168-100"
   v:mID="168"
   v:groupContext="shape"
   transform="translate(158.9,-57.5999)">
			<title
   id="title35">Sheet.168</title>
			<rect
   x="0"
   y="277.70001"
   width="14.4"
   height="3.5999999"
   class="st1"
   id="rect35" />
		</g>
		<g
   id="shape179-102"
   v:mID="179"
   v:groupContext="shape"
   transform="translate(166.1,-57.6)">
			<title
   id="title36">Stack pointer.179</title>
			<v:userDefs>
				<v:ud
   v:nameU="visVersion"
   v:val="VT0(15):26" />
			</v:userDefs>
			<path
   d="M 33.6,302.9 H 5.4 A 5.39999,5.39999 0 0 1 0,297.5 v -5.4 -5.28"
   class="st11"
   id="path36" />
		</g>
		<g
   id="shape202-107"
   v:mID="202"
   v:groupContext="shape"
   transform="translate(65.3,-136.8)">
			<title
   id="title37">Sheet.202</title>
			<desc
   id="desc37">RomWBW Partition (8MB * N)</desc>
			<v:textBlock
   v:margins="rect(1,1,1,1)" />
			<v:textRect
   cx="72"
   cy="274.1"
   width="144"
   height="14.4" />
			<rect
   x="0"
   y="266.89999"
   width="144"
   height="14.4"
   class="st4"
   id="rect37" />
			<text
   x="22.889999"
   y="276.5"
   class="st2"
   v:langID="1033"
   id="text37"><v:paragraph
   v:horizAlign="1" /><v:tabList />RomWBW Partition (8MB * N)</text>		</g>
		<g
   id="shape205-110"
   v:mID="205"
   v:groupContext="shape"
   transform="translate(108.5,-223.2)">
			<title
   id="title38">Sheet.205</title>
			<desc
   id="desc38">Prefix (1 MB typical)</desc>
			<v:textBlock
   v:margins="rect(1,1,1,1)" />
			<v:textRect
   cx="37.8"
   cy="274.1"
   width="75.61"
   height="14.4" />
			<rect
   x="0"
   y="266.89999"
   width="75.599998"
   height="14.4"
   class="st7"
   id="rect38" />
			<text
   x="5.02"
   y="276.5"
   class="st2"
   v:langID="1033"
   id="text38"><v:paragraph
   v:horizAlign="1" /><v:tabList />Prefix (1 MB typical)</text>		</g>
		<g
   id="shape206-113"
   v:mID="206"
   v:groupContext="shape"
   v:layerMember="0"
   transform="translate(252.5,-46.8)">
			<title
   id="title39">Dynamic connector</title>
			<path
   d="m 0,281.3 h 9.9 a 4.5,4.5 -180 0 0 4.5,-4.5 V 239 a 4.5,4.5 -180 0 0 -4.5,-4.5 h -192.6 a 4.5,4.5 0 0 1 -4.5,-4.5 v -18.76"
   class="st14"
   id="path39" />
		</g>
		<g
   id="shape207-119"
   v:mID="207"
   v:groupContext="shape"
   v:layerMember="0"
   transform="translate(252.5,-39.6)">
			<title
   id="title40">Dynamic connector.207</title>
			<path
   d="m 0,281.3 h 17.1 a 4.5,4.5 -180 0 0 4.5,-4.5 v -52.2 a 4.5,4.5 -180 0 0 -4.5,-4.5 h -34.2 a 4.5,4.5 0 0 1 -4.5,-4.5 v -11.56"
   class="st14"
   id="path40" />
		</g>
		<g
   id="shape118-124"
   v:mID="118"
   v:groupContext="shape"
   transform="translate(101.3,-57.6)">
			<title
   id="title41">Sheet.118</title>
			<desc
   id="desc41">MBR</desc>
			<v:textBlock
   v:margins="rect(1,1,1,1)" />
			<v:textRect
   cx="36"
   cy="274.1"
   width="72.01"
   height="14.4" />
			<rect
   x="0"
   y="266.89999"
   width="72"
   height="14.4"
   class="st3"
   id="rect41" />
			<text
   x="28.23"
   y="276.5"
   class="st2"
   v:langID="1033"
   id="text41"><v:paragraph
   v:horizAlign="1" /><v:tabList />MBR</text>		</g>
		<g
   id="shape208-127"
   v:mID="208"
   v:groupContext="shape"
   transform="translate(209.156,-21.5999)">
			<title
   id="title42">Sheet.208</title>
			<rect
   x="0"
   y="252.5"
   width="43.344002"
   height="28.799999"
   class="st3"
   id="rect42" />
		</g>
		<g
   id="shape128-129"
   v:mID="128"
   v:groupContext="shape"
   transform="translate(259.7,-208.8)">
			<title
   id="title43">Sheet.128</title>
			<desc
   id="desc43">Slice (8 MB)</desc>
			<v:textBlock
   v:margins="rect(1,1,1,1)" />
			<v:textRect
   cx="75.6"
   cy="274.1"
   width="151.21"
   height="14.4" />
			<rect
   x="0"
   y="266.89999"
   width="151.2"
   height="14.4"
   class="st3"
   id="rect43" />
			<text
   x="56.389999"
   y="276.5"
   class="st2"
   v:langID="1033"
   id="text43"><v:paragraph
   v:horizAlign="1" /><v:tabList />Slice (8 MB)</text>		</g>
		<g
   id="shape577-132"
   v:mID="577"
   v:groupContext="shape"
   transform="rotate(1.43296e-4,54698430,20351602)">
			<title
   id="title44">Bracket.146</title>
			<v:userDefs>
				<v:ud
   v:nameU="visVersion"
   v:val="VT0(14):26" />
			</v:userDefs>
			<path
   d="m 0,281.3 a 2.71661,2.71661 0 0 1 2.4,-2.4 h 2.4 a 2.71661,2.71661 -180 0 0 2.4,-2.4 2.71661,2.71661 -180 0 0 2.4,2.4 H 12 a 2.71661,2.71661 0 0 1 2.4,2.4"
   class="st12"
   id="path44" />
		</g>
		<g
   id="shape581-135"
   v:mID="581"
   v:groupContext="shape"
   transform="translate(259.7,-194.4)">
			<title
   id="title45">Sheet.581</title>
			<rect
   x="0"
   y="266.89999"
   width="14.4"
   height="14.4"
   class="st1"
   id="rect45" />
		</g>
		<g
   id="shape582-137"
   v:mID="582"
   v:groupContext="shape"
   transform="translate(259.7,-194.4)">
			<title
   id="title46">Sheet.582</title>
			<desc
   id="desc46">CP/M File System (8,176 KB)</desc>
			<v:textBlock
   v:margins="rect(1,1,1,1)" />
			<v:textRect
   cx="75.6"
   cy="274.1"
   width="151.21"
   height="14.4" />
			<rect
   x="0"
   y="266.89999"
   width="151.2"
   height="14.4"
   class="st7"
   id="rect46" />
			<text
   x="29.629999"
   y="276.5"
   class="st2"
   v:langID="1033"
   id="text46"><v:paragraph
   v:horizAlign="1" /><v:tabList />CP/M File System (8,176 KB)</text>		</g>
		<g
   id="shape583-140"
   v:mID="583"
   v:groupContext="shape"
   transform="translate(259.7,-194.4)">
			<title
   id="title47">Sheet.583</title>
			<rect
   x="0"
   y="266.89999"
   width="151.2"
   height="14.4"
   class="st3"
   id="rect47" />
		</g>
		<g
   id="shape590-142"
   v:mID="590"
   v:groupContext="shape"
   transform="rotate(90,144.25,195.15)">
			<title
   id="title48">Sheet.590</title>
			<path
   d="m 0,230.9 v 27.9 a 22.5,22.5 -180 0 0 22.5,22.5 H 90"
   class="st16"
   id="path48" />
		</g>
		<g
   id="shape591-148"
   v:mID="591"
   v:groupContext="shape"
   transform="rotate(-90,21.85,201.85)">
			<title
   id="title49">Bracket.301</title>
			<v:userDefs>
				<v:ud
   v:nameU="visVersion"
   v:val="VT0(14):26" />
			</v:userDefs>
			<path
   d="m 0,281.3 a 2.41217,2.41217 0 0 1 2.13,-2.13 h 2.94 a 2.41217,2.41217 -180 0 0 2.13,-2.13 2.41217,2.41217 -180 0 0 2.13,2.13 h 2.94 a 2.41217,2.41217 0 0 1 2.13,2.13"
   class="st12"
   id="path49" />
		</g>
		<g
   id="shape592-151"
   v:mID="592"
   v:groupContext="shape"
   transform="rotate(-90,25.45,47.05)">
			<title
   id="title50">Bracket.592</title>
			<v:userDefs>
				<v:ud
   v:nameU="visVersion"
   v:val="VT0(14):26" />
			</v:userDefs>
			<path
   d="m 0,281.3 a 2.26768,2.26768 0 0 1 2,-2 h 3.2 a 2.26768,2.26768 -180 0 0 2,-2.01 2.26768,2.26768 -180 0 0 2,2.01 h 3.2 a 2.26768,2.26768 0 0 1 2,2"
   class="st12"
   id="path50" />
		</g>
	</g>
</svg>
