<?xml version="1.0" encoding="UTF-8" standalone="no"?>
<!DOCTYPE svg PUBLIC "-//W3C//DTD SVG 1.1//EN" "http://www.w3.org/Graphics/SVG/1.1/DTD/svg11.dtd">
<!-- Generated by Microsoft Visio, SVG Export WBW.svg Page-1 -->
<svg xmlns="http://www.w3.org/2000/svg" xmlns:xlink="http://www.w3.org/1999/xlink" xmlns:ev="http://www.w3.org/2001/xml-events"
		xmlns:v="http://schemas.microsoft.com/visio/2003/SVGExtensions/" width="8.5in" height="11in" viewBox="0 0 612 792"
		xml:space="preserve" color-interpolation-filters="sRGB" class="st3">
	<v:documentProperties v:langID="1033" v:viewMarkup="false">
		<v:userDefs>
			<v:ud v:nameU="msvNoAutoConnect" v:val="VT0(1):26"/>
		</v:userDefs>
	</v:documentProperties>

	<style type="text/css">
	<![CDATA[
		.st1 {fill:#4bacc6;stroke:#000000;stroke-linecap:round;stroke-linejoin:round;stroke-opacity:0;stroke-width:0.75}
		.st2 {stroke:#4bacc6;stroke-linecap:round;stroke-linejoin:round;stroke-width:18}
		.st3 {fill:none;fill-rule:evenodd;font-size:12px;overflow:visible;stroke-linecap:square;stroke-miterlimit:3}
	]]>
	</style>

	<g v:mID="0" v:index="1" v:groupContext="foregroundPage">
		<title>Page-1</title>
		<v:pageProperties v:drawingScale="1" v:pageScale="1" v:drawingUnits="19" v:shadowOffsetX="9" v:shadowOffsetY="-9"/>
		<g id="shape34-1" v:mID="34" v:groupContext="shape" transform="translate(18,-684)">
			<title>Sheet.34</title>
			<rect x="0" y="702" width="18" height="90" rx="9" ry="9" class="st1"/>
		</g>
		<g id="shape35-3" v:mID="35" v:groupContext="shape" transform="translate(54,-684)">
			<title>Sheet.35</title>
			<rect x="0" y="738" width="18" height="54" rx="9" ry="9" class="st1"/>
		</g>
		<g id="shape36-5" v:mID="36" v:groupContext="shape" transform="translate(90,-684)">
			<title>Sheet.36</title>
			<rect x="0" y="702" width="18" height="90" rx="9" ry="9" class="st1"/>
		</g>
		<g id="shape38-7" v:mID="38" v:groupContext="shape" transform="translate(234,-684)">
			<title>Sheet.38</title>
			<rect x="0" y="738" width="18" height="54" rx="9" ry="9" class="st1"/>
		</g>
		<g id="shape39-9" v:mID="39" v:groupContext="shape" transform="translate(270,-684)">
			<title>Sheet.39</title>
			<rect x="0" y="702" width="18" height="90" rx="9" ry="9" class="st1"/>
		</g>
		<g id="shape44-11" v:mID="44" v:groupContext="shape" transform="translate(198,-684)">
			<title>Sheet.44</title>
			<rect x="0" y="702" width="18" height="90" rx="9" ry="9" class="st1"/>
		</g>
		<g id="shape48-13" v:mID="48" v:groupContext="shape" transform="translate(126,-756)">
			<title>Sheet.48</title>
			<rect x="0" y="774" width="36" height="18" rx="9" ry="9" class="st1"/>
		</g>
		<g id="shape49-15" v:mID="49" v:groupContext="shape" transform="translate(126,-720)">
			<title>Sheet.49</title>
			<rect x="0" y="774" width="36" height="18" rx="9" ry="9" class="st1"/>
		</g>
		<g id="shape50-17" v:mID="50" v:groupContext="shape" transform="translate(126,-684)">
			<title>Sheet.50</title>
			<rect x="0" y="774" width="36" height="18" rx="9" ry="9" class="st1"/>
		</g>
		<g id="shape52-19" v:mID="52" v:groupContext="shape" transform="translate(153,-729)">
			<title>Sheet.52</title>
			<path d="M-0 756 A18 18 0 0 1 18 774 A18 18 0 0 1 -0 792" class="st2"/>
		</g>
		<g id="shape53-22" v:mID="53" v:groupContext="shape" transform="translate(153,-693)">
			<title>Sheet.53</title>
			<path d="M-0 756 A18 18 0 0 1 18 774 A18 18 0 0 1 -0 792" class="st2"/>
		</g>
	</g>
</svg>
