<?xml version="1.0" encoding="UTF-8" standalone="no"?>
<!DOCTYPE svg PUBLIC "-//W3C//DTD SVG 1.1//EN" "http://www.w3.org/Graphics/SVG/1.1/DTD/svg11.dtd">
<!-- Generated by Microsoft Visio, SVG Export Panel.svg Page-1 -->
<svg xmlns="http://www.w3.org/2000/svg" xmlns:xlink="http://www.w3.org/1999/xlink" xmlns:ev="http://www.w3.org/2001/xml-events"
		width="4.51042in" height="2.51042in" viewBox="0 0 324.75 180.75" xml:space="preserve" color-interpolation-filters="sRGB"
		class="st11">
	<style type="text/css">
	<![CDATA[
		.st1 {fill:#ff0000;stroke:#000000;stroke-linecap:round;stroke-linejoin:round;stroke-width:0.75}
		.st2 {fill:#7f7f7f;stroke:#000000;stroke-linecap:round;stroke-linejoin:round;stroke-width:0.75}
		.st3 {fill:#000000;stroke:#000000;stroke-linecap:round;stroke-linejoin:round;stroke-width:0.75}
		.st4 {stroke:#000000;stroke-linecap:round;stroke-linejoin:round;stroke-width:2}
		.st5 {fill:none;stroke:none;stroke-linecap:round;stroke-linejoin:round;stroke-width:0.75}
		.st6 {fill:#000000;font-family:Calibri;font-size:1.00001em}
		.st7 {stroke:#000000;stroke-linecap:round;stroke-linejoin:round;stroke-width:0.75}
		.st8 {fill:#000000;font-family:Calibri;font-size:0.666664em}
		.st9 {fill:#000000;font-family:Calibri;font-size:0.499992em}
		.st10 {fill:none;stroke:#000000;stroke-linecap:round;stroke-linejoin:round;stroke-width:0.75}
		.st11 {fill:none;fill-rule:evenodd;font-size:12px;overflow:visible;stroke-linecap:square;stroke-miterlimit:3}
	]]>
	</style>

	<g>
		<title>Page-1</title>
		<g id="shape1-1" transform="translate(27.375,-117.375)">
			<title>Sheet.1</title>
			<ellipse cx="9" cy="171.75" rx="9" ry="9.00001" class="st1"/>
		</g>
		<g id="shape2-3" transform="translate(99.375,-27.375)">
			<title>Sheet.2</title>
			<ellipse cx="9" cy="171.75" rx="9" ry="9.00001" class="st2"/>
		</g>
		<g id="shape3-5" transform="translate(106.125,-18.375)">
			<title>Sheet.3</title>
			<rect x="0" y="160.5" width="4.5" height="20.25" rx="2.25" ry="2.25" class="st3"/>
		</g>
		<g id="shape8-7" transform="translate(63.375,-117.375)">
			<title>Sheet.8</title>
			<ellipse cx="9" cy="171.75" rx="9" ry="9.00001" class="st1"/>
		</g>
		<g id="shape9-9" transform="translate(99.375,-117.375)">
			<title>Sheet.9</title>
			<ellipse cx="9" cy="171.75" rx="9" ry="9.00001" class="st1"/>
		</g>
		<g id="shape10-11" transform="translate(135.375,-117.375)">
			<title>Sheet.10</title>
			<ellipse cx="9" cy="171.75" rx="9" ry="9.00001" class="st1"/>
		</g>
		<g id="shape11-13" transform="translate(171.375,-117.375)">
			<title>Sheet.11</title>
			<ellipse cx="9" cy="171.75" rx="9" ry="9.00001" class="st1"/>
		</g>
		<g id="shape12-15" transform="translate(207.375,-117.375)">
			<title>Sheet.12</title>
			<ellipse cx="9" cy="171.75" rx="9" ry="9.00001" class="st1"/>
		</g>
		<g id="shape13-17" transform="translate(243.375,-117.375)">
			<title>Sheet.13</title>
			<ellipse cx="9" cy="171.75" rx="9" ry="9.00001" class="st1"/>
		</g>
		<g id="shape14-19" transform="translate(279.375,-117.375)">
			<title>Sheet.14</title>
			<ellipse cx="9" cy="171.75" rx="9" ry="9.00001" class="st1"/>
		</g>
		<g id="shape18-21" transform="translate(27.375,-27.375)">
			<title>Sheet.18</title>
			<ellipse cx="9" cy="171.75" rx="9" ry="9.00001" class="st2"/>
		</g>
		<g id="shape19-23" transform="translate(34.125,-18.375)">
			<title>Sheet.19</title>
			<rect x="0" y="160.5" width="4.5" height="20.25" rx="2.25" ry="2.25" class="st3"/>
		</g>
		<g id="shape20-25" transform="translate(63.375,-27.375)">
			<title>Sheet.20</title>
			<ellipse cx="9" cy="171.75" rx="9" ry="9.00001" class="st2"/>
		</g>
		<g id="shape21-27" transform="translate(70.125,-18.375)">
			<title>Sheet.21</title>
			<rect x="0" y="160.5" width="4.5" height="20.25" rx="2.25" ry="2.25" class="st3"/>
		</g>
		<g id="shape22-29" transform="translate(135.375,-27.375)">
			<title>Sheet.22</title>
			<ellipse cx="9" cy="171.75" rx="9" ry="9.00001" class="st2"/>
		</g>
		<g id="shape23-31" transform="translate(142.125,-18.375)">
			<title>Sheet.23</title>
			<rect x="0" y="160.5" width="4.5" height="20.25" rx="2.25" ry="2.25" class="st3"/>
		</g>
		<g id="shape24-33" transform="translate(171.375,-27.375)">
			<title>Sheet.24</title>
			<ellipse cx="9" cy="171.75" rx="9" ry="9.00001" class="st2"/>
		</g>
		<g id="shape25-35" transform="translate(178.125,-18.375)">
			<title>Sheet.25</title>
			<rect x="0" y="160.5" width="4.5" height="20.25" rx="2.25" ry="2.25" class="st3"/>
		</g>
		<g id="shape26-37" transform="translate(207.375,-27.375)">
			<title>Sheet.26</title>
			<ellipse cx="9" cy="171.75" rx="9" ry="9.00001" class="st2"/>
		</g>
		<g id="shape27-39" transform="translate(214.125,-18.375)">
			<title>Sheet.27</title>
			<rect x="0" y="160.5" width="4.5" height="20.25" rx="2.25" ry="2.25" class="st3"/>
		</g>
		<g id="shape28-41" transform="translate(243.375,-27.375)">
			<title>Sheet.28</title>
			<ellipse cx="9" cy="171.75" rx="9" ry="9.00001" class="st2"/>
		</g>
		<g id="shape29-43" transform="translate(250.125,-18.375)">
			<title>Sheet.29</title>
			<rect x="0" y="160.5" width="4.5" height="20.25" rx="2.25" ry="2.25" class="st3"/>
		</g>
		<g id="shape30-45" transform="translate(279.375,-27.375)">
			<title>Sheet.30</title>
			<ellipse cx="9" cy="171.75" rx="9" ry="9.00001" class="st2"/>
		</g>
		<g id="shape31-47" transform="translate(286.125,-18.375)">
			<title>Sheet.31</title>
			<rect x="0" y="160.5" width="4.5" height="20.25" rx="2.25" ry="2.25" class="st3"/>
		</g>
		<g id="shape32-49" transform="translate(18.375,-153.375)">
			<title>Sheet.32</title>
			<path d="M0 180.75 L144 180.75" class="st4"/>
		</g>
		<g id="shape33-52" transform="translate(199.125,18.375) rotate(90)">
			<title>Sheet.33</title>
			<path d="M0 180.75 L18 180.75" class="st4"/>
		</g>
		<g id="shape34-55" transform="translate(343.125,18.375) rotate(90)">
			<title>Sheet.34</title>
			<path d="M0 180.75 L18 180.75" class="st4"/>
		</g>
		<g id="shape35-58" transform="translate(27.375,-135.375)">
			<title>Sheet.35</title>
			<desc>8</desc>
			<rect x="0" y="162.75" width="18" height="18" class="st5"/>
			<text x="5.96" y="175.35" class="st6">8</text>		</g>
		<g id="shape36-61" transform="translate(63.375,-135.375)">
			<title>Sheet.36</title>
			<desc>4</desc>
			<rect x="0" y="162.75" width="18" height="18" class="st5"/>
			<text x="5.96" y="175.35" class="st6">4</text>		</g>
		<g id="shape37-64" transform="translate(99.375,-135.375)">
			<title>Sheet.37</title>
			<desc>2</desc>
			<rect x="0" y="162.75" width="18" height="18" class="st5"/>
			<text x="5.96" y="175.35" class="st6">2</text>		</g>
		<g id="shape38-67" transform="translate(135.375,-135.375)">
			<title>Sheet.38</title>
			<desc>1</desc>
			<rect x="0" y="162.75" width="18" height="18" class="st5"/>
			<text x="5.96" y="175.35" class="st6">1</text>		</g>
		<g id="shape39-70" transform="translate(18.375,-153.375)">
			<title>Sheet.39</title>
			<desc>High</desc>
			<rect x="0" y="162.75" width="144" height="18" class="st5"/>
			<text x="60.91" y="175.35" class="st6">High</text>		</g>
		<g id="shape40-73" transform="translate(162.375,-153.375)">
			<title>Sheet.40</title>
			<path d="M0 180.75 L144 180.75" class="st4"/>
		</g>
		<g id="shape41-76" transform="translate(343.125,18.375) rotate(90)">
			<title>Sheet.41</title>
			<path d="M0 180.75 L18 180.75" class="st4"/>
		</g>
		<g id="shape42-79" transform="translate(487.125,18.375) rotate(90)">
			<title>Sheet.42</title>
			<path d="M0 180.75 L18 180.75" class="st4"/>
		</g>
		<g id="shape43-82" transform="translate(171.375,-135.375)">
			<title>Sheet.43</title>
			<desc>8</desc>
			<rect x="0" y="162.75" width="18" height="18" class="st5"/>
			<text x="5.96" y="175.35" class="st6">8</text>		</g>
		<g id="shape44-85" transform="translate(207.375,-135.375)">
			<title>Sheet.44</title>
			<desc>4</desc>
			<rect x="0" y="162.75" width="18" height="18" class="st5"/>
			<text x="5.96" y="175.35" class="st6">4</text>		</g>
		<g id="shape45-88" transform="translate(243.375,-135.375)">
			<title>Sheet.45</title>
			<desc>2</desc>
			<rect x="0" y="162.75" width="18" height="18" class="st5"/>
			<text x="5.96" y="175.35" class="st6">2</text>		</g>
		<g id="shape46-91" transform="translate(279.375,-135.375)">
			<title>Sheet.46</title>
			<desc>1</desc>
			<rect x="0" y="162.75" width="18" height="18" class="st5"/>
			<text x="5.96" y="175.35" class="st6">1</text>		</g>
		<g id="shape47-94" transform="translate(162.375,-153.375)">
			<title>Sheet.47</title>
			<desc>Low</desc>
			<rect x="0" y="162.75" width="144" height="18" class="st5"/>
			<text x="62.02" y="175.35" class="st6">Low</text>		</g>
		<g id="shape48-97" transform="translate(27.375,-99.3749)">
			<title>Sheet.48</title>
			<desc>7</desc>
			<rect x="0" y="162.75" width="18" height="18" class="st5"/>
			<text x="5.96" y="175.35" class="st6">7</text>		</g>
		<g id="shape49-100" transform="translate(63.375,-99.3749)">
			<title>Sheet.49</title>
			<desc>6</desc>
			<rect x="0" y="162.75" width="18" height="18" class="st5"/>
			<text x="5.96" y="175.35" class="st6">6</text>		</g>
		<g id="shape50-103" transform="translate(99.375,-99.375)">
			<title>Sheet.50</title>
			<desc>5</desc>
			<rect x="0" y="162.75" width="18" height="18" class="st5"/>
			<text x="5.96" y="175.35" class="st6">5</text>		</g>
		<g id="shape52-106" transform="translate(135.375,-99.375)">
			<title>Sheet.52</title>
			<desc>4</desc>
			<rect x="0" y="162.75" width="18" height="18" class="st5"/>
			<text x="5.96" y="175.35" class="st6">4</text>		</g>
		<g id="shape53-109" transform="translate(171.375,-99.375)">
			<title>Sheet.53</title>
			<desc>3</desc>
			<rect x="0" y="162.75" width="18" height="18" class="st5"/>
			<text x="5.96" y="175.35" class="st6">3</text>		</g>
		<g id="shape54-112" transform="translate(207.375,-99.375)">
			<title>Sheet.54</title>
			<desc>2</desc>
			<rect x="0" y="162.75" width="18" height="18" class="st5"/>
			<text x="5.96" y="175.35" class="st6">2</text>		</g>
		<g id="shape55-115" transform="translate(243.375,-99.375)">
			<title>Sheet.55</title>
			<desc>1</desc>
			<rect x="0" y="162.75" width="18" height="18" class="st5"/>
			<text x="5.96" y="175.35" class="st6">1</text>		</g>
		<g id="shape56-118" transform="translate(279.375,-99.375)">
			<title>Sheet.56</title>
			<desc>0</desc>
			<rect x="0" y="162.75" width="18" height="18" class="st5"/>
			<text x="5.96" y="175.35" class="st6">0</text>		</g>
		<g id="shape57-121" transform="translate(94.875,-58.875)">
			<title>Sheet.57</title>
			<path d="M0 180.75 L27 180.75" class="st7"/>
		</g>
		<g id="shape58-124" transform="translate(90.375,-58.875)">
			<title>Sheet.58</title>
			<desc>Auto</desc>
			<rect x="0" y="171.75" width="36" height="9.00001" class="st5"/>
			<text x="10.13" y="178.65" class="st8">Auto</text>		</g>
		<g id="shape59-127" transform="translate(90.375,-49.875)">
			<title>Sheet.59</title>
			<desc>Menu</desc>
			<rect x="0" y="171.75" width="36" height="9.00001" class="st5"/>
			<text x="8.39" y="178.65" class="st8">Menu</text>		</g>
		<g id="shape61-130" transform="translate(22.875,-58.875)">
			<title>Sheet.61</title>
			<path d="M0 180.75 L27 180.75" class="st7"/>
		</g>
		<g id="shape62-133" transform="translate(18.375,-58.875)">
			<title>Sheet.62</title>
			<desc>CRT</desc>
			<rect x="0" y="171.75" width="36" height="9.00001" class="st5"/>
			<text x="11.75" y="178.65" class="st8">CRT</text>		</g>
		<g id="shape63-136" transform="translate(18.375,-49.875)">
			<title>Sheet.63</title>
			<desc>Serial</desc>
			<rect x="0" y="171.75" width="36" height="9.00001" class="st5"/>
			<text x="9.03" y="178.65" class="st8">Serial</text>		</g>
		<g id="shape64-139" transform="translate(58.875,-58.875)">
			<title>Sheet.64</title>
			<path d="M0 180.75 L27 180.75" class="st7"/>
		</g>
		<g id="shape65-142" transform="translate(54.375,-58.875)">
			<title>Sheet.65</title>
			<desc>Sec</desc>
			<rect x="0" y="171.75" width="36" height="9.00001" class="st5"/>
			<text x="12.48" y="178.65" class="st8">Sec</text>		</g>
		<g id="shape66-145" transform="translate(54.375,-49.875)">
			<title>Sheet.66</title>
			<desc>Pri</desc>
			<rect x="0" y="171.75" width="36" height="9.00001" class="st5"/>
			<text x="13.62" y="178.65" class="st8">Pri</text>		</g>
		<g id="shape67-148" transform="translate(130.875,-58.875)">
			<title>Sheet.67</title>
			<path d="M0 180.75 L27 180.75" class="st7"/>
		</g>
		<g id="shape68-151" transform="translate(126.375,-58.875)">
			<title>Sheet.68</title>
			<desc>Disk</desc>
			<rect x="0" y="171.75" width="36" height="9.00001" class="st5"/>
			<text x="11.24" y="178.65" class="st8">Disk</text>		</g>
		<g id="shape69-154" transform="translate(126.375,-49.875)">
			<title>Sheet.69</title>
			<desc>ROM</desc>
			<rect x="0" y="171.75" width="36" height="9.00001" class="st5"/>
			<text x="9.76" y="178.65" class="st8">ROM</text>		</g>
		<g id="shape70-157" transform="translate(166.875,-58.875)">
			<title>Sheet.70</title>
			<path d="M0 180.75 L27 180.75" class="st7"/>
		</g>
		<g id="shape71-160" transform="translate(162.375,-58.875)">
			<title>Sheet.71</title>
			<desc>Floppy</desc>
			<rect x="0" y="171.75" width="36" height="9.00001" class="st5"/>
			<text x="7.12" y="178.65" class="st8">Floppy</text>		</g>
		<g id="shape72-163" transform="translate(162.375,-49.875)">
			<title>Sheet.72</title>
			<desc>Hard</desc>
			<rect x="0" y="171.75" width="36" height="9.00001" class="st5"/>
			<text x="10.1" y="178.65" class="st8">Hard</text>		</g>
		<g id="shape73-166" transform="translate(202.875,-58.875)">
			<title>Sheet.73</title>
			<path d="M0 180.75 L99 180.75" class="st7"/>
		</g>
		<g id="shape74-169" transform="translate(198.375,-49.875)">
			<title>Sheet.74</title>
			<desc>4</desc>
			<rect x="0" y="171.75" width="36" height="9.00001" class="st5"/>
			<text x="15.97" y="178.65" class="st8">4</text>		</g>
		<g id="shape75-172" transform="translate(234.375,-49.875)">
			<title>Sheet.75</title>
			<desc>2</desc>
			<rect x="0" y="171.75" width="36" height="9.00001" class="st5"/>
			<text x="15.97" y="178.65" class="st8">2</text>		</g>
		<g id="shape76-175" transform="translate(270.375,-49.875)">
			<title>Sheet.76</title>
			<desc>1</desc>
			<rect x="0" y="171.75" width="36" height="9.00001" class="st5"/>
			<text x="15.97" y="178.65" class="st8">1</text>		</g>
		<g id="shape78-178" transform="translate(198.375,-58.875)">
			<title>Sheet.78</title>
			<desc>ROM App / Boot Slice</desc>
			<rect x="0" y="171.75" width="108" height="9.00001" class="st5"/>
			<text x="18.99" y="178.65" class="st8">ROM App / Boot Slice</text>		</g>
		<g id="shape79-181" transform="translate(18.375,-0.375)">
			<title>Sheet.79</title>
			<desc>ROM Apps: 0=Monitor 1=BASIC 2=Forth 3=Game 4=CP/M 2.2 5=Z-Sys...</desc>
			<rect x="0" y="171.75" width="288" height="9" class="st5"/>
			<text x="19.9" y="178.05" class="st9">ROM Apps:   0=Monitor   1=BASIC   2=Forth   3=Game   4=CP/M 2.2   5=Z-System   6=Net Boot   7=User</text>		</g>
		<g id="shape80-184" transform="translate(0.375,-0.375)">
			<title>Sheet.80</title>
			<rect x="0" y="0.750005" width="324" height="180" class="st10"/>
		</g>
		<g id="shape81-186" transform="translate(18.375,-72.375)">
			<title>Sheet.81</title>
			<path d="M0 180.75 L144 180.75" class="st4"/>
		</g>
		<g id="shape82-189" transform="translate(199.125,99.375) rotate(90)">
			<title>Sheet.82</title>
			<path d="M0 180.75 L18 180.75" class="st4"/>
		</g>
		<g id="shape84-192" transform="translate(18.375,-72.375)">
			<title>Sheet.84</title>
			<desc>Console</desc>
			<rect x="0" y="162.75" width="72" height="18" class="st5"/>
			<text x="16.61" y="175.35" class="st6">Console</text>		</g>
		<g id="shape85-195" transform="translate(162.375,-72.375)">
			<title>Sheet.85</title>
			<path d="M0 180.75 L144 180.75" class="st4"/>
		</g>
		<g id="shape86-198" transform="translate(271.125,99.375) rotate(90)">
			<title>Sheet.86</title>
			<path d="M0 180.75 L18 180.75" class="st4"/>
		</g>
		<g id="shape87-201" transform="translate(487.125,99.375) rotate(90)">
			<title>Sheet.87</title>
			<path d="M0 180.75 L18 180.75" class="st4"/>
		</g>
		<g id="shape88-204" transform="translate(90.375,-72.375)">
			<title>Sheet.88</title>
			<desc>Boot</desc>
			<rect x="0" y="162.75" width="216" height="18" class="st5"/>
			<text x="96.4" y="175.35" class="st6">Boot</text>		</g>
	</g>
</svg>
